<?xml version="1.0" standalone="no"?>
<!DOCTYPE svg PUBLIC "-//W3C//DTD SVG 20010904//EN"
 "http://www.w3.org/TR/2001/REC-SVG-20010904/DTD/svg10.dtd">
<svg version="1.0" xmlns="http://www.w3.org/2000/svg"
 width="640.000000pt" height="640.000000pt" viewBox="0 0 640.000000 640.000000"
 preserveAspectRatio="xMidYMid meet">
<metadata>
Created by potrace 1.14, written by Peter Selinger 2001-2017
</metadata>
<g transform="translate(0.000000,640.000000) scale(0.100000,-0.100000)"
fill="#000000" stroke="none">
<path d="M0 5695 l0 -705 125 0 c118 0 125 -1 125 -20 0 -18 7 -20 84 -20 80
0 85 -1 88 -22 3 -21 9 -23 86 -26 74 -3 82 -5 82 -22 0 -19 8 -20 130 -20
123 0 130 -1 130 -20 0 -18 7 -20 65 -20 50 0 65 -3 65 -14 0 -8 -10 -16 -22
-18 -15 -2 -24 -11 -26 -25 -3 -21 -9 -23 -63 -23 -52 0 -59 -2 -59 -20 0 -17
-8 -19 -88 -22 -82 -3 -87 -4 -90 -25 -3 -21 -9 -23 -63 -23 -52 0 -59 -2 -59
-20 0 -19 -7 -20 -105 -20 -98 0 -105 -1 -105 -20 0 -19 -7 -20 -150 -20
l-150 0 0 -110 0 -110 106 0 c97 0 106 2 111 20 5 18 14 20 109 20 96 0 104 2
104 19 0 16 9 20 60 23 52 3 60 1 60 -14 0 -14 -9 -18 -40 -18 -33 0 -40 -3
-40 -20 0 -15 -7 -20 -25 -20 -19 0 -25 -5 -25 -22 0 -20 -5 -23 -42 -23 -37
0 -43 -3 -46 -22 -3 -21 -9 -23 -63 -23 -52 0 -59 -2 -59 -20 0 -13 -7 -20
-19 -20 -13 0 -21 -8 -23 -22 -2 -19 -10 -24 -45 -26 -35 -3 -43 -7 -43 -23 0
-16 -7 -19 -40 -19 l-40 0 0 -65 c0 -63 1 -65 25 -65 18 0 25 5 25 20 0 17 7
20 40 20 36 0 40 3 40 25 l0 25 105 0 c87 0 105 3 105 15 0 8 9 15 20 15 11 0
20 -7 20 -15 0 -13 38 -22 73 -16 4 0 7 -10 7 -24 0 -23 4 -25 45 -25 38 0 45
-3 45 -20 0 -18 7 -20 65 -20 63 0 65 -1 65 -25 l0 -25 105 0 105 0 0 -55 c0
-48 -2 -55 -20 -55 -16 0 -20 -7 -21 -37 -1 -21 -1 -41 0 -45 0 -5 -8 -8 -19
-8 -17 0 -20 -7 -20 -45 0 -41 -2 -45 -25 -45 -18 0 -25 -5 -25 -20 0 -17 -7
-20 -40 -20 -33 0 -40 -3 -40 -20 0 -18 -7 -20 -80 -20 -73 0 -80 2 -80 20 0
17 -7 20 -45 20 -38 0 -45 3 -45 20 0 13 -7 20 -20 20 -17 0 -20 7 -20 45 0
41 -2 45 -25 45 -18 0 -25 5 -25 20 0 13 -7 20 -20 20 -15 0 -20 -7 -20 -25 0
-16 6 -25 15 -25 11 0 15 -11 15 -40 0 -28 -4 -40 -14 -40 -10 0 -15 -16 -18
-57 -4 -79 1 -113 17 -113 9 0 15 -15 17 -42 2 -36 7 -44 26 -46 18 -3 22 -10
22 -43 0 -32 3 -39 20 -39 15 0 20 -7 20 -25 0 -18 5 -25 20 -25 13 0 20 -7
20 -20 0 -15 7 -20 25 -20 23 0 25 -4 25 -40 0 -36 -2 -40 -25 -40 -18 0 -25
-5 -25 -20 0 -13 -7 -20 -20 -20 -17 0 -20 -7 -20 -40 0 -33 -3 -40 -20 -40
-17 0 -20 -7 -20 -45 0 -41 -2 -45 -25 -45 -22 0 -25 -4 -25 -39 0 -31 -4 -40
-21 -44 -19 -5 -21 -12 -17 -66 3 -58 2 -61 -19 -61 -22 0 -23 -4 -23 -85 0
-78 -2 -85 -20 -85 -19 0 -20 -7 -20 -110 l0 -110 25 0 c16 0 25 6 25 15 0 8
9 15 20 15 15 0 20 7 20 25 0 18 5 25 20 25 13 0 20 7 20 20 0 17 7 20 45 20
40 0 45 3 45 23 0 21 4 22 80 22 l80 0 0 -62 c0 -56 -2 -63 -20 -63 -17 0 -20
-7 -20 -40 0 -33 -3 -40 -20 -40 -17 0 -20 -7 -20 -45 0 -41 -2 -45 -25 -45
-18 0 -25 -5 -25 -20 0 -13 -7 -20 -20 -20 -13 0 -20 -7 -20 -20 0 -13 -7 -20
-20 -20 -13 0 -20 -7 -20 -19 0 -13 -8 -21 -22 -23 -15 -2 -24 -11 -26 -26 -2
-12 -10 -22 -18 -22 -10 0 -14 -12 -14 -39 0 -33 -4 -40 -23 -43 -20 -3 -22
-8 -22 -66 0 -58 -2 -62 -22 -62 -17 0 -23 -6 -23 -23 0 -18 -5 -23 -22 -23
-20 1 -23 -4 -23 -42 0 -37 -3 -42 -22 -42 -20 0 -23 -5 -23 -40 0 -33 -3 -40
-20 -40 -17 0 -20 -7 -20 -45 0 -38 -3 -45 -20 -45 -19 0 -20 -7 -20 -130 0
-123 1 -130 20 -130 17 0 20 -7 20 -45 0 -38 3 -45 20 -45 11 0 20 -7 20 -15
0 -11 -11 -15 -40 -15 -33 0 -40 -3 -40 -20 0 -13 -7 -20 -20 -20 -20 0 -20
-7 -20 -560 l0 -560 791 0 c786 0 791 0 786 20 -4 15 0 20 14 20 12 0 19 -7
19 -20 0 -18 7 -20 70 -20 68 0 70 1 70 25 0 18 -5 25 -20 25 -13 0 -20 7 -20
20 0 13 -7 20 -20 20 -15 0 -20 7 -20 29 0 16 -3 43 -6 60 -6 27 -4 31 14 31
14 0 22 -8 24 -22 2 -15 11 -24 26 -26 12 -2 22 -10 22 -18 0 -8 9 -14 20 -14
15 0 20 -7 20 -25 0 -18 5 -25 20 -25 13 0 20 -7 20 -20 0 -13 7 -20 20 -20
13 0 20 -7 20 -20 0 -19 7 -20 90 -20 89 0 90 0 90 25 0 18 -5 25 -20 25 -13
0 -20 7 -20 20 0 13 -7 20 -20 20 -13 0 -20 7 -20 20 0 15 -7 20 -25 20 -22 0
-25 4 -25 40 l0 40 40 0 c34 0 40 -3 40 -21 0 -12 8 -23 20 -26 11 -3 20 -12
20 -19 0 -8 9 -14 19 -14 13 0 21 -8 23 -22 2 -15 11 -24 26 -26 14 -2 22 -10
22 -23 0 -16 7 -19 40 -19 33 0 40 -3 40 -20 0 -20 7 -20 1350 -20 l1350 0 0
65 c0 58 2 65 20 65 18 0 20 -7 20 -65 0 -63 1 -65 25 -65 24 0 25 2 25 65 0
51 3 65 15 65 12 0 15 17 17 85 1 47 2 93 2 103 1 10 -8 18 -21 20 -23 3 -23
2 -23 -102 0 -99 -1 -106 -20 -106 -19 0 -20 7 -20 110 0 103 1 110 20 110 19
0 20 7 20 145 0 138 -1 145 -20 145 -19 0 -20 7 -20 104 0 101 -1 105 -22 108
-23 3 -23 6 -26 156 l-3 152 26 0 25 0 0 -150 c0 -143 1 -150 20 -150 19 0 20
-7 20 -106 0 -97 2 -106 20 -111 19 -5 20 -14 20 -154 l0 -149 25 0 25 0 0
155 c0 145 -1 155 -19 155 -24 0 -31 26 -31 128 0 66 -3 82 -15 82 -12 0 -15
18 -15 105 0 89 2 104 15 99 11 -5 15 -23 15 -71 0 -60 2 -65 19 -60 17 4 20
-1 23 -37 2 -34 7 -42 26 -44 18 -3 22 -10 22 -43 0 -32 3 -39 20 -39 17 0 20
7 20 39 0 33 4 40 23 43 20 3 22 9 25 66 3 54 6 62 22 62 18 0 20 7 20 65 0
58 2 65 20 65 19 0 20 7 20 150 0 143 -1 150 -20 150 -18 0 -20 7 -20 60 0 47
3 60 15 60 11 0 15 -11 15 -40 0 -36 3 -40 25 -40 22 0 25 4 25 39 0 33 4 40
23 43 14 2 23 11 25 25 2 15 10 23 23 23 17 0 19 7 19 60 0 57 1 60 25 60 l25
0 0 155 0 155 -25 0 -25 0 0 125 c0 118 -1 125 -20 125 -18 0 -20 7 -20 86 0
77 -2 86 -20 91 -16 4 -20 15 -22 67 -3 55 -5 61 -25 64 -32 5 -30 32 2 32 23
0 25 4 25 40 0 33 3 40 20 40 17 0 20 7 20 45 0 38 3 45 20 45 19 0 20 7 20
110 0 103 -1 110 -20 110 -18 0 -20 7 -20 65 0 58 -2 65 -20 65 -17 0 -20 7
-20 40 0 36 -2 40 -25 40 -20 0 -25 5 -25 25 0 18 -5 25 -20 25 -13 0 -20 7
-20 20 0 13 -7 20 -20 20 -13 0 -20 7 -20 20 0 16 7 20 34 20 28 0 35 -4 38
-22 2 -19 10 -24 46 -26 34 -3 42 -7 42 -23 0 -14 7 -19 25 -19 l25 0 0 175
c0 168 -1 175 -20 175 -17 0 -20 7 -20 40 0 33 -3 40 -19 40 -13 0 -21 8 -23
23 -2 14 -11 23 -25 25 -13 2 -23 10 -23 18 0 12 29 14 169 14 168 0 170 0
173 23 l3 22 233 3 232 2 0 -25 c0 -24 2 -25 65 -25 58 0 65 -2 65 -20 0 -17
7 -20 40 -20 l40 0 0 -45 0 -45 45 0 45 0 0 115 0 115 -65 0 c-51 0 -65 3 -65
15 0 13 -20 15 -124 15 -122 0 -125 1 -128 23 -3 20 -9 22 -85 25 -75 3 -83 5
-83 22 0 18 -7 20 -90 20 -83 0 -90 -1 -90 -20 0 -18 -7 -20 -84 -20 -80 0
-85 -1 -88 -22 -3 -21 -9 -23 -85 -26 -65 -2 -83 -6 -83 -17 0 -12 -14 -15
-60 -15 -47 0 -60 3 -60 15 0 8 9 15 20 15 17 0 20 7 20 40 0 33 3 40 20 40
17 0 20 7 20 45 l0 44 108 3 c99 3 107 4 107 23 0 22 0 22 80 24 42 1 55 5 55
16 0 11 11 15 40 15 36 0 40 3 40 25 l0 25 145 0 145 0 0 -25 0 -25 195 0 195
0 0 200 0 200 -65 0 c-58 0 -65 2 -65 20 0 18 -7 20 -85 20 -78 0 -85 2 -85
20 0 17 -7 20 -40 20 -33 0 -40 3 -40 20 0 18 -7 20 -65 20 -63 0 -65 1 -65
25 0 25 -1 25 -85 25 -78 0 -85 2 -85 20 0 19 -7 20 -124 20 -122 0 -125 1
-128 23 -2 14 -11 23 -25 25 -15 2 -23 10 -23 23 0 12 -7 19 -20 19 -11 0 -20
7 -20 15 0 12 16 15 81 15 72 0 81 2 86 20 5 19 14 20 279 20 267 0 274 0 274
-20 0 -19 7 -20 150 -20 l150 0 0 70 0 70 -125 0 c-103 0 -125 3 -125 15 0 11
18 15 83 17 76 3 82 5 85 26 3 18 10 22 43 22 l39 0 0 110 0 110 -425 0 c-371
0 -425 2 -425 15 0 8 9 15 20 15 13 0 20 7 20 20 0 18 7 20 85 20 84 0 85 0
85 25 0 24 2 25 65 25 58 0 65 2 65 20 0 17 7 20 45 20 38 0 45 3 45 20 0 17
7 20 40 20 36 0 40 3 40 25 0 23 4 25 45 25 33 0 45 4 45 15 0 12 13 15 60 15
57 0 60 1 60 25 0 24 2 25 65 25 l65 0 0 385 0 385 -855 0 -855 0 0 -40 c0
-36 3 -40 25 -40 24 0 25 -2 25 -64 0 -55 3 -64 20 -69 16 -4 20 -14 20 -46 0
-34 3 -41 20 -41 18 0 20 -7 20 -60 0 -53 2 -60 20 -60 19 0 20 -7 20 -130 l0
-130 25 0 c25 0 25 -1 25 -85 0 -84 0 -85 -25 -85 -25 0 -25 1 -25 80 0 73 -2
80 -20 80 -18 0 -20 -7 -20 -60 l0 -60 -105 0 c-98 0 -105 1 -105 20 0 19 -7
20 -149 20 -148 0 -150 0 -153 23 -3 22 -6 22 -150 25 l-148 3 0 39 c0 33 -3
40 -20 40 -18 0 -20 7 -20 85 0 78 -2 85 -20 85 -17 0 -20 7 -20 45 0 41 -2
45 -25 45 -24 0 -25 3 -25 60 0 53 -2 60 -20 60 -15 0 -20 7 -20 25 0 20 -5
25 -25 25 -23 0 -25 4 -25 45 0 32 -4 45 -14 45 -10 0 -16 13 -18 38 -2 30 -7
38 -25 40 -15 2 -23 10 -23 23 0 14 -7 19 -25 19 -16 0 -25 -6 -25 -15 0 -21
-18 -19 -23 3 -4 13 -5 12 -6 -5 -1 -17 6 -22 39 -28 39 -7 40 -8 40 -46 0
-32 3 -39 20 -39 15 0 20 -7 20 -29 0 -44 11 -91 22 -91 6 0 8 7 4 15 -3 8 -1
15 4 15 6 0 10 -9 10 -20 0 -13 7 -20 20 -20 17 0 20 -7 20 -39 0 -21 3 -66 6
-100 5 -47 10 -61 23 -60 10 0 12 2 4 6 -19 7 -17 63 2 63 11 0 15 -11 15 -40
0 -33 3 -40 20 -40 18 0 20 -7 20 -85 0 -78 2 -85 20 -85 17 0 20 -7 20 -40
l0 -40 -100 0 c-93 0 -100 1 -100 20 0 20 -7 20 -560 20 -551 0 -560 0 -560
-20 0 -18 -8 -20 -147 -22 -147 -3 -148 -3 -151 -27 l-4 -24 -104 7 -104 7 0
-25 c0 -26 -1 -26 -80 -26 -73 0 -80 2 -80 20 0 13 7 20 20 20 15 0 20 7 20
25 0 18 -5 25 -20 25 -13 0 -20 7 -20 20 0 16 -7 20 -30 20 -23 0 -30 -4 -30
-20 0 -13 -7 -20 -20 -20 -15 0 -20 -7 -20 -25 0 -18 5 -25 19 -25 13 0 21 -8
23 -22 2 -15 11 -24 26 -26 12 -2 22 -9 22 -15 0 -9 -32 -12 -107 -12 -106 0
-108 -1 -107 -22 1 -22 -3 -23 -88 -23 -81 0 -88 -2 -88 -20 0 -11 -7 -20 -15
-20 -11 0 -15 11 -15 40 0 32 3 38 16 33 10 -4 17 1 21 16 3 12 13 21 24 21
14 0 19 7 19 30 0 23 -4 30 -20 30 -11 0 -20 7 -20 15 0 8 9 15 20 15 18 0 20
7 20 65 0 63 1 65 25 65 24 0 25 2 25 65 0 58 2 65 20 65 17 0 20 7 20 39 0
33 4 40 23 43 18 2 22 9 23 43 0 33 4 40 20 40 12 0 20 8 22 23 2 14 10 22 23
22 12 0 19 7 19 20 0 13 7 20 20 20 15 0 20 7 20 25 0 18 5 25 20 25 13 0 20
7 20 20 0 17 7 20 45 20 38 0 45 3 45 20 0 13 7 20 20 20 13 0 20 7 20 20 0
13 7 20 20 20 15 0 20 7 20 25 0 22 -4 25 -39 25 -33 0 -40 -4 -43 -22 -2 -19
-10 -24 -45 -26 -29 -2 -43 -8 -43 -18 0 -8 -9 -14 -20 -14 -13 0 -20 7 -20
20 0 13 7 20 20 20 13 0 20 7 20 20 0 20 -7 20 -960 20 l-960 0 0 -705z m1878
603 c-2 -15 -11 -24 -25 -26 -15 -2 -23 -10 -23 -23 0 -10 -7 -19 -15 -19 -8
0 -15 -9 -15 -20 0 -15 -7 -20 -25 -20 -20 0 -25 -5 -25 -25 0 -18 -5 -25 -20
-25 -13 0 -20 -7 -20 -20 0 -15 -7 -20 -25 -20 -22 0 -25 -4 -25 -40 0 -33 -3
-40 -20 -40 -17 0 -20 -7 -20 -45 0 -38 -3 -45 -20 -45 -18 0 -20 -7 -20 -61
0 -52 -3 -62 -20 -66 -17 -5 -20 -14 -20 -69 0 -56 -2 -64 -19 -64 -22 0 -36
-52 -25 -94 5 -23 3 -26 -20 -26 -25 0 -26 -2 -26 -65 0 -58 -2 -65 -20 -65
-18 0 -20 7 -20 65 0 58 2 65 20 65 18 0 20 7 20 60 0 53 2 60 20 60 17 0 19
8 22 68 3 61 5 67 26 70 20 3 22 9 22 63 0 52 2 59 20 59 17 0 20 7 20 45 0
38 3 45 20 45 17 0 20 7 20 40 0 33 3 40 20 40 13 0 20 7 20 20 0 15 7 20 25
20 20 0 25 5 25 25 0 18 5 25 20 25 13 0 20 7 20 20 0 13 7 20 20 20 13 0 20
7 20 20 0 13 7 20 20 20 15 0 20 7 20 25 0 20 5 25 26 25 21 0 25 -4 22 -22z
m2972 -668 c0 -58 -3 -70 -16 -70 -12 0 -15 6 -10 23 3 12 6 43 6 70 0 26 5
47 10 47 6 0 10 -30 10 -70z m-1090 20 c0 -20 7 -20 275 -20 268 0 275 0 275
-20 0 -19 7 -20 146 -20 137 0 146 -1 151 -20 5 -18 14 -20 109 -20 95 0 104
-2 104 -19 0 -14 10 -21 35 -25 l35 -7 -2 -87 -2 -87 -6 85 -6 85 -2 -82 c-2
-81 -2 -82 -29 -85 -16 -2 4 -4 42 -4 39 0 57 2 42 4 l-28 3 3 87 c3 82 4 87
26 90 21 3 22 1 22 -82 0 -79 2 -86 20 -86 15 0 20 -7 20 -25 0 -20 -5 -25
-24 -25 -13 0 -26 5 -28 11 -2 6 -4 -20 -4 -58 -1 -37 1 -49 3 -25 3 35 8 42
26 43 21 1 20 2 -3 9 l-25 8 28 1 27 1 0 -80 c0 -73 -2 -80 -20 -80 -15 0 -20
7 -20 25 0 15 -6 25 -15 25 -11 0 -15 16 -17 68 l-3 67 -48 1 -47 1 45 -4 45
-4 0 -70 0 -69 -45 0 c-41 0 -45 2 -45 25 l0 25 -105 0 c-98 0 -105 1 -105 20
0 19 -7 20 -150 20 -143 0 -150 1 -150 20 0 20 -7 20 -275 20 l-275 0 0 25 0
25 -560 0 -560 0 0 -25 0 -25 -150 0 c-143 0 -150 -1 -150 -20 0 -19 -7 -20
-105 -20 -98 0 -105 -1 -105 -20 0 -18 -7 -20 -85 -20 -78 0 -85 -2 -85 -20 0
-18 -8 -20 -107 -22 -103 -3 -108 -4 -111 -25 -3 -22 -8 -23 -88 -23 -67 0
-84 -3 -84 -15 0 -10 -16 -15 -62 -17 -58 -3 -63 -5 -62 -25 0 -16 -5 -23 -18
-23 -14 0 -18 8 -18 34 0 28 4 35 23 38 19 3 22 9 22 46 l0 42 63 0 c58 0 62
2 62 23 0 21 3 22 87 22 85 0 88 1 87 23 -1 21 2 22 108 22 101 0 108 1 108
20 0 18 7 20 80 20 79 0 80 0 80 25 l0 25 105 0 c87 0 105 3 105 15 0 13 -18
15 -107 13 l-108 -2 105 -6 c75 -4 88 -7 45 -8 -33 -1 -117 -5 -187 -9 -115
-5 -128 -8 -128 -24 0 -16 -11 -19 -107 -21 -96 -3 -108 -5 -107 -20 2 -16 -9
-18 -87 -18 -86 0 -89 -1 -89 -22 0 -20 -5 -23 -35 -23 l-35 0 0 78 0 77 40 0
c36 0 40 3 40 25 0 25 1 25 91 25 86 0 91 1 86 20 -5 19 0 20 104 20 106 0
109 1 109 23 0 21 3 22 81 19 73 -3 81 -2 86 16 4 15 17 21 65 26 34 3 78 6
99 6 32 0 39 3 39 20 0 19 7 20 150 20 143 0 150 1 150 20 0 20 7 20 560 20
553 0 560 0 560 -20z m-2350 -340 c0 -57 -1 -60 -25 -60 -23 0 -25 -4 -25 -45
0 -38 -3 -45 -20 -45 -17 0 -20 7 -20 45 0 38 3 45 20 45 18 0 20 7 20 60 0
57 1 60 25 60 24 0 25 -3 25 -60z m2345 -60 l7 -40 264 0 264 0 1 23 c1 21 1
21 8 -3 l7 -25 147 -3 c139 -2 147 -4 147 -22 0 -19 7 -20 105 -20 l105 0 0
-35 c0 -19 -5 -35 -11 -35 -7 0 -8 11 -4 30 l7 30 -86 0 c-58 0 -86 -4 -86
-11 0 -9 22 -10 75 -6 41 3 77 2 80 -2 2 -5 -6 -7 -18 -6 -12 1 -14 0 -4 -2
24 -6 22 -43 -3 -43 -13 0 -20 7 -20 20 0 18 -7 20 -60 20 -50 0 -60 3 -61 18
-1 16 -2 16 -6 0 -4 -17 -36 -18 -494 -18 -482 0 -489 0 -489 20 0 18 -7 20
-86 20 -82 0 -85 -1 -82 -22 3 -20 8 -21 81 -19 72 2 77 1 77 -18 0 -18 -6
-21 -45 -21 -38 0 -45 -3 -45 -20 0 -16 -7 -20 -35 -20 -34 0 -35 1 -35 40 l0
40 -45 0 c-38 0 -45 -3 -45 -20 0 -15 -7 -20 -25 -20 -18 0 -25 -5 -25 -20 0
-19 -7 -20 -145 -20 l-145 0 0 -25 c0 -24 -2 -25 -65 -25 -58 0 -65 -2 -65
-20 0 -18 -7 -20 -85 -20 -78 0 -85 -2 -85 -20 0 -18 -7 -20 -65 -20 -63 0
-65 -1 -65 -25 0 -22 -4 -25 -40 -25 -29 0 -40 -4 -40 -15 0 -11 -12 -15 -45
-15 -41 0 -45 -2 -45 -25 0 -23 -4 -25 -45 -25 -38 0 -45 -3 -45 -20 0 -17 -7
-20 -40 -20 -36 0 -40 -2 -40 -25 0 -23 -4 -25 -45 -25 -38 0 -45 -3 -45 -20
0 -17 -7 -20 -40 -20 -33 0 -40 -3 -40 -20 0 -19 -7 -20 -260 -20 -253 0 -260
-1 -260 -20 0 -19 -7 -20 -145 -20 -138 0 -145 -1 -145 -20 0 -19 -7 -20 -150
-20 -143 0 -150 -1 -150 -20 0 -18 -7 -20 -63 -20 -50 0 -64 3 -64 15 0 9 10
15 24 15 16 0 23 6 23 20 0 13 7 20 20 20 13 0 20 7 20 20 0 15 7 20 25 20 19
0 25 5 25 23 0 19 5 22 37 22 31 0 39 4 41 22 3 18 11 22 45 25 33 2 42 7 41
21 -1 12 5 17 22 17 19 0 24 5 24 25 0 18 5 25 20 25 13 0 20 7 20 20 0 15 7
20 25 20 18 0 25 5 25 20 0 11 7 20 15 20 8 0 15 9 15 20 0 15 7 20 25 20 19
0 25 5 25 23 0 19 5 22 42 22 38 0 43 3 42 23 -1 21 3 22 63 22 56 0 63 2 63
20 0 17 8 19 88 22 83 3 87 4 86 26 -1 21 2 22 108 22 88 0 108 3 108 15 0 11
18 15 83 17 76 3 82 5 85 26 2 12 8 22 13 22 5 0 10 -10 10 -22 l2 -23 4 23
c4 19 10 22 57 22 65 0 116 9 116 21 0 5 -3 8 -7 8 -25 -4 -34 4 -13 11 14 4
91 8 172 9 l146 1 7 40 7 40 548 0 548 0 7 -40z m-1125 -20 c0 -6 -47 -10
-120 -10 -73 0 -120 4 -120 10 0 6 47 10 120 10 73 0 120 -4 120 -10z m1650 0
c0 -6 -92 -10 -255 -10 -163 0 -255 4 -255 10 0 6 92 10 255 10 163 0 255 -4
255 -10z m-3050 -110 c0 -73 -2 -80 -20 -80 -17 0 -20 -7 -20 -43 l0 -43 -40
-2 c-37 -3 -40 -1 -40 23 l0 25 -130 0 c-123 0 -130 1 -130 20 0 19 -7 20
-125 20 l-125 0 0 40 0 40 110 0 c103 0 110 1 110 20 0 19 7 20 105 20 98 0
105 1 105 20 0 19 7 20 100 20 l100 0 0 -80z m3970 20 c0 -17 7 -20 40 -20 33
0 40 -3 40 -20 0 -17 7 -20 44 -20 39 0 45 -3 48 -22 2 -15 11 -24 26 -26 12
-2 22 -10 22 -18 0 -11 -23 -14 -125 -14 -118 0 -125 1 -125 20 0 15 -7 20
-25 20 -20 0 -25 -5 -25 -25 0 -18 5 -25 20 -25 13 0 20 -7 20 -20 0 -17 7
-20 40 -20 33 0 40 -3 40 -20 0 -15 7 -20 25 -20 20 0 25 -5 25 -25 0 -18 5
-25 20 -25 11 0 20 -6 20 -14 0 -8 10 -16 23 -18 14 -2 23 -11 25 -25 2 -15
10 -23 23 -23 12 0 19 -7 19 -20 0 -15 -7 -20 -25 -20 -14 0 -24 3 -24 8 4 22
-3 32 -21 32 -13 0 -20 7 -20 20 0 18 -10 25 -32 21 -5 0 -8 8 -8 18 0 13 -8
21 -22 23 -15 2 -24 11 -26 26 -3 18 -10 22 -43 22 -32 0 -39 3 -39 20 0 13
-7 20 -20 20 -13 0 -20 7 -20 19 0 13 -8 21 -22 23 -15 2 -23 10 -23 23 0 13
8 21 23 23 16 3 22 10 22 28 0 21 -4 24 -40 24 -29 0 -40 4 -40 15 0 11 11 15
40 15 33 0 40 3 40 20 0 17 7 20 40 20 33 0 40 -3 40 -20z m-3840 -5 c0 -8 -9
-15 -20 -15 -17 0 -20 -7 -20 -40 0 -33 -3 -40 -20 -40 -15 0 -20 -7 -20 -25
0 -18 -5 -25 -20 -25 -15 0 -20 7 -20 25 0 18 5 25 20 25 17 0 20 7 20 40 0
33 3 40 20 40 11 0 20 7 20 15 0 8 9 15 20 15 11 0 20 -7 20 -15z m3630 -75
c0 -13 -7 -20 -20 -20 -13 0 -20 -7 -20 -20 0 -13 -7 -20 -20 -20 -13 0 -20 7
-20 20 0 15 -7 20 -25 20 -18 0 -25 5 -25 20 0 18 7 20 65 20 58 0 65 -2 65
-20z m-1578 -42 c2 -15 11 -24 26 -26 14 -2 22 -10 22 -23 0 -12 7 -19 20 -19
17 0 20 -7 20 -45 l0 -45 85 0 c78 0 85 -2 85 -20 0 -18 -7 -20 -85 -20 -77 0
-85 2 -85 19 0 13 -8 21 -22 23 -19 2 -24 10 -26 46 -3 42 -3 42 -43 42 l-39
0 0 45 c0 38 3 45 19 45 13 0 21 -8 23 -22z m1618 -48 c0 -11 -6 -20 -14 -20
-8 0 -16 -10 -18 -22 -2 -15 -11 -24 -25 -26 -15 -2 -23 -10 -23 -23 0 -12 -7
-19 -20 -19 -15 0 -20 7 -20 25 0 18 5 25 20 25 13 0 20 7 20 20 0 13 7 20 20
20 13 0 20 7 20 20 0 13 7 20 20 20 13 0 20 -7 20 -20z m-3769 -50 c6 0 7 5 4
10 -3 6 -1 10 4 10 6 0 11 -7 11 -15 0 -8 -9 -15 -20 -15 -15 0 -20 -7 -20
-25 0 -18 -5 -25 -19 -25 -10 0 -21 -9 -24 -20 -3 -12 -14 -20 -26 -20 -14 0
-21 -6 -21 -20 0 -17 -7 -20 -45 -20 -38 0 -45 -3 -45 -20 0 -17 -7 -20 -40
-20 -36 0 -40 -2 -40 -25 0 -18 -5 -25 -20 -25 -13 0 -20 -7 -20 -20 0 -13 -7
-20 -19 -20 -13 0 -21 -8 -23 -22 -2 -15 -11 -24 -25 -26 -13 -2 -23 -10 -23
-18 0 -8 -9 -14 -20 -14 -15 0 -20 -7 -20 -25 0 -22 -4 -25 -40 -25 -33 0 -40
-3 -40 -20 0 -15 -7 -20 -25 -20 -18 0 -25 -5 -25 -20 0 -13 -7 -20 -20 -20
-13 0 -20 7 -20 20 0 13 7 20 20 20 13 0 20 7 20 19 0 13 8 21 23 23 14 2 23
11 25 26 3 18 10 22 43 22 29 0 39 4 39 16 0 9 9 18 20 21 11 3 20 14 20 24 0
12 7 19 20 19 13 0 20 7 20 20 0 15 7 20 25 20 20 0 25 5 25 25 0 18 5 25 20
25 13 0 20 7 20 20 0 17 7 20 40 20 33 0 40 3 40 20 0 17 7 20 45 20 38 0 45
3 45 20 0 13 7 20 19 20 13 0 21 8 23 23 2 14 11 23 26 25 15 2 22 11 23 25 1
17 2 18 6 5 2 -10 9 -18 14 -18z m3249 -70 c0 -6 -81 -10 -224 -10 -139 0
-227 4 -231 10 -4 7 73 10 224 10 147 0 231 -4 231 -10z m83 -27 c202 -6 217
-7 217 -25 0 -16 9 -18 85 -18 68 0 85 -3 85 -15 0 -11 -18 -15 -82 -18 l-83
-3 87 -2 86 -2 7 40 c7 41 35 57 35 20 0 -13 7 -20 19 -20 13 0 21 -8 23 -22
3 -22 8 -23 104 -26 92 -2 102 -5 107 -22 4 -17 14 -20 65 -20 55 0 61 -2 64
-22 3 -21 8 -23 66 -23 52 0 62 -3 62 -17 0 -13 8 -18 25 -18 18 0 25 -5 25
-20 0 -13 7 -20 19 -20 13 0 21 -8 23 -22 2 -15 10 -23 23 -23 13 0 21 -8 23
-22 2 -15 10 -23 23 -23 16 0 19 -7 19 -45 0 -38 3 -45 20 -45 17 0 20 -7 20
-40 0 -33 -3 -40 -20 -40 -15 0 -20 7 -20 25 0 18 -5 25 -20 25 -11 0 -20 5
-20 11 0 6 7 9 15 5 8 -3 15 -1 15 4 0 6 -9 10 -20 10 -17 0 -20 7 -22 48 l-1
47 -4 -41 c-3 -33 -9 -43 -26 -48 -38 -10 -47 -7 -47 19 0 19 5 25 23 26 15 1
17 3 5 6 -9 2 -19 12 -21 21 -3 12 -5 10 -6 -5 -1 -21 -6 -23 -66 -23 -58 0
-65 2 -65 20 0 18 -7 20 -65 20 -36 0 -65 -3 -65 -7 0 -5 -45 -7 -100 -5 -64
2 -100 0 -100 -7 0 -6 41 -12 103 -14 l102 -3 -107 -2 c-102 -2 -108 -1 -108
18 0 19 7 20 105 20 98 0 105 1 105 20 0 19 -7 20 -105 20 l-105 0 0 25 0 25
-130 0 c-123 0 -130 1 -130 20 0 19 -7 20 -190 20 -183 0 -190 1 -190 20 0 19
-7 20 -215 20 -208 0 -215 1 -215 20 0 19 -7 20 -157 22 -87 1 -219 3 -293 4
-74 1 -195 3 -267 3 -101 1 -132 4 -130 14 1 8 38 13 127 17 120 5 125 6 128
28 2 12 10 22 18 22 17 0 19 -27 2 -33 -26 -9 60 -18 147 -15 85 3 90 4 93 26
2 12 8 22 14 22 6 0 8 -9 5 -20 -3 -11 -1 -20 3 -20 5 0 11 18 15 40 l7 39
146 4 c333 6 478 7 685 0z m-1065 -206 l527 -2 -532 -3 -533 -2 1 23 c1 16 2
18 6 5 4 -17 40 -18 531 -21z m260 16 c-141 -2 -375 -2 -520 0 -145 1 -29 2
257 2 286 0 404 -1 263 -2z m487 -43 l-210 -5 210 -5 210 -5 -212 -3 c-184 -2
-213 0 -213 13 0 13 29 15 213 13 l212 -2 -210 -6z m-1163 -42 c2 -15 11 -24
26 -26 14 -2 22 -10 22 -23 0 -16 7 -19 40 -19 33 0 40 -3 40 -19 0 -16 8 -20
43 -23 34 -2 42 -7 42 -23 0 -13 8 -21 23 -23 12 -2 22 -10 22 -18 0 -8 9 -14
20 -14 18 0 20 7 20 60 0 53 -2 60 -20 60 -17 0 -20 7 -20 45 l0 45 65 0 c63
0 65 -1 65 -25 0 -24 3 -26 40 -22 l40 4 0 -109 c0 -108 0 -109 23 -106 20 3
22 9 25 86 3 74 5 82 22 82 13 0 20 -7 20 -20 0 -13 7 -20 19 -20 13 0 21 -8
23 -22 2 -15 11 -24 26 -26 12 -2 22 -10 22 -18 0 -8 6 -14 14 -14 8 0 16 -10
18 -22 2 -15 11 -24 26 -26 19 -3 22 -9 22 -47 0 -38 2 -43 20 -38 18 5 20 0
20 -60 0 -60 2 -66 23 -69 18 -2 22 -9 23 -43 0 -33 4 -41 22 -43 20 -3 22 1
22 42 0 39 3 46 20 46 13 0 20 7 20 20 0 13 -7 20 -20 20 -13 0 -20 7 -20 20
0 13 -7 20 -20 20 -17 0 -19 8 -22 88 -3 82 -4 87 -25 90 -22 3 -23 7 -23 108
0 102 1 105 22 102 18 -2 22 -10 22 -43 1 -34 5 -41 24 -43 14 -2 22 -10 22
-23 0 -12 7 -19 20 -19 15 0 20 -7 20 -25 0 -18 5 -25 20 -25 15 0 20 7 20 25
0 18 5 25 20 25 17 0 20 7 20 38 0 21 2 41 4 43 3 3 23 3 45 1 40 -4 41 -5 41
-43 0 -32 3 -39 20 -39 18 0 20 -7 20 -61 0 -52 3 -62 20 -66 17 -5 20 -14 20
-69 0 -62 1 -64 25 -64 24 0 25 2 25 65 0 63 -1 65 -25 65 -24 0 -25 2 -25 65
0 51 -3 65 -15 65 -11 0 -15 11 -15 40 0 38 2 40 30 40 17 0 33 0 38 0 4 1 8
-8 10 -20 2 -12 11 -20 23 -20 12 0 19 -7 19 -20 0 -18 7 -20 65 -20 l65 0 0
-39 c0 -30 4 -40 20 -44 12 -3 20 -14 20 -26 0 -14 6 -21 20 -21 13 0 20 -7
20 -19 0 -13 8 -21 23 -23 20 -3 22 -9 25 -65 3 -55 6 -63 22 -63 17 0 20 7
20 40 0 33 3 40 20 40 17 0 20 -7 20 -40 0 -33 -3 -40 -20 -40 -19 0 -20 -7
-20 -130 l0 -130 -85 0 -85 0 0 45 c0 38 -3 45 -20 45 -13 0 -20 7 -20 19 0
13 -8 21 -22 23 -19 2 -24 10 -26 46 -3 34 -7 42 -23 42 -16 0 -19 7 -19 40 0
33 -3 40 -20 40 -19 0 -20 -7 -20 -105 0 -98 1 -105 20 -105 15 0 20 -7 20
-25 0 -18 5 -25 20 -25 17 0 20 -7 20 -40 0 -33 -3 -40 -20 -40 -13 0 -20 7
-20 20 0 13 -7 20 -19 20 -13 0 -21 8 -23 23 -2 14 -11 23 -25 25 -15 2 -23
10 -23 23 0 16 -7 19 -40 19 -36 0 -40 -2 -40 -25 0 -18 5 -25 20 -25 13 0 20
-7 20 -20 0 -13 7 -20 20 -20 17 0 20 -7 20 -40 0 -36 3 -40 25 -40 18 0 25
-5 25 -20 0 -17 -7 -20 -40 -20 -33 0 -40 3 -40 20 0 15 -7 20 -25 20 -23 0
-25 -4 -25 -45 0 -38 3 -45 20 -45 17 0 20 -7 20 -41 0 -32 4 -42 20 -46 16
-4 20 -14 20 -44 0 -32 4 -39 19 -39 16 0 20 -8 23 -42 2 -36 7 -44 26 -46 18
-3 22 -10 22 -43 0 -32 3 -39 20 -39 17 0 20 7 20 45 0 38 -3 45 -20 45 -19 0
-20 7 -20 105 0 97 1 105 19 105 16 0 20 8 23 43 2 35 7 43 26 45 14 2 22 10
22 23 0 12 7 19 20 19 13 0 20 -7 20 -19 0 -10 9 -21 20 -24 12 -3 20 -14 20
-26 0 -32 40 -28 41 4 1 14 2 33 3 43 1 11 -7 18 -21 20 -15 2 -23 10 -23 23
0 17 8 19 85 19 l85 0 0 -39 c0 -33 4 -40 23 -43 20 -3 22 -9 25 -85 3 -83 3
-83 -23 -83 -20 0 -25 -5 -25 -25 0 -18 -5 -25 -20 -25 -18 0 -20 7 -20 65 0
58 -2 65 -20 65 -13 0 -20 7 -20 20 0 15 -7 20 -25 20 l-25 0 0 -105 c0 -98
-1 -105 -20 -105 -15 0 -20 7 -20 25 0 18 -5 25 -20 25 -13 0 -20 7 -20 20 0
13 -7 20 -20 20 -17 0 -20 7 -20 40 0 36 -2 40 -25 40 -24 0 -25 -2 -25 -74 0
-101 8 -136 31 -136 16 0 19 -8 19 -45 0 -41 -2 -45 -25 -45 l-25 0 0 -104 c0
-101 1 -105 23 -108 18 -2 23 -10 25 -45 3 -35 7 -43 23 -43 12 0 19 -7 19
-20 0 -13 7 -20 20 -20 15 0 20 7 20 25 0 18 -5 25 -20 25 -13 0 -20 7 -20 20
0 18 7 20 59 20 54 0 60 -2 63 -22 2 -19 10 -24 46 -26 34 -3 42 -7 42 -23 0
-14 7 -19 25 -19 18 0 25 -5 25 -20 0 -11 7 -20 15 -20 9 0 15 -9 15 -25 0
-20 5 -25 25 -25 23 0 25 -4 25 -40 0 -33 3 -40 20 -40 18 0 20 -7 20 -65 0
-63 1 -65 25 -65 18 0 25 5 25 20 0 13 7 20 20 20 13 0 20 -7 20 -20 0 -13 -7
-20 -19 -20 -16 0 -20 -8 -23 -42 -2 -35 -7 -43 -23 -43 -13 0 -21 8 -23 23
-2 14 -10 22 -23 22 -12 0 -19 7 -19 20 0 13 -7 20 -20 20 -14 0 -20 7 -20 21
0 12 -8 23 -20 26 -11 3 -20 14 -20 24 0 14 -7 19 -25 19 -18 0 -25 5 -25 20
0 13 -7 20 -20 20 -13 0 -20 7 -20 20 0 13 -7 20 -19 20 -13 0 -21 8 -23 22
-2 12 -12 25 -23 28 -11 3 -20 11 -21 18 -1 6 -2 23 -2 37 -2 18 -8 25 -22 25
-17 0 -20 -7 -20 -45 0 -38 3 -45 20 -45 17 0 20 -7 20 -40 0 -36 3 -40 25
-40 23 0 25 -4 25 -45 0 -38 3 -45 20 -45 13 0 20 -7 20 -20 0 -13 7 -20 20
-20 17 0 20 -7 20 -45 0 -38 -3 -45 -20 -45 -18 0 -20 -7 -20 -60 l0 -60 -45
0 c-38 0 -45 3 -45 20 0 13 -7 20 -20 20 -15 0 -20 7 -20 25 0 18 -5 25 -20
25 -11 0 -20 7 -20 15 0 8 -9 15 -20 15 -15 0 -20 7 -20 25 0 20 -5 25 -25 25
-18 0 -25 5 -25 20 0 13 -7 20 -20 20 -15 0 -20 7 -20 25 0 18 -5 25 -20 25
-13 0 -20 7 -20 20 0 15 -7 20 -26 20 -21 0 -25 -4 -22 -22 2 -15 11 -24 26
-26 21 -3 23 -7 20 -65 -3 -56 -5 -62 -25 -65 -13 -2 -23 -9 -23 -17 0 -7 -9
-15 -20 -18 -12 -3 -20 -14 -20 -27 0 -19 -4 -21 -62 -18 -57 3 -63 5 -66 26
-3 18 -10 22 -43 22 -28 0 -39 4 -39 15 0 8 -9 15 -20 15 -11 0 -20 -7 -20
-15 0 -8 -9 -15 -20 -15 -11 0 -20 7 -20 15 0 11 -16 15 -67 17 -62 3 -68 5
-71 26 -3 18 -10 22 -43 22 -35 0 -39 -3 -39 -25 0 -22 4 -25 40 -25 29 0 40
-4 40 -15 0 -12 14 -15 64 -15 59 0 65 -2 68 -22 2 -19 10 -24 46 -26 34 -3
42 -7 42 -23 0 -12 7 -19 20 -19 15 0 20 -7 20 -25 0 -25 0 -26 65 -19 l65 7
0 -27 c0 -21 5 -26 26 -26 21 0 25 -4 21 -20 -4 -15 0 -20 14 -20 12 0 19 -7
19 -20 0 -15 7 -20 25 -20 18 0 25 -5 25 -20 0 -13 7 -20 20 -20 15 0 20 -7
20 -25 0 -23 4 -25 45 -25 38 0 45 -3 45 -20 0 -17 7 -20 40 -20 36 0 40 -3
40 -24 0 -19 4 -24 20 -21 18 4 20 -2 20 -61 0 -57 -2 -64 -20 -64 -13 0 -20
-7 -20 -20 0 -13 -7 -20 -20 -20 -15 0 -20 -7 -20 -25 0 -23 -4 -25 -45 -25
-38 0 -45 -3 -45 -20 0 -19 -7 -20 -170 -20 -162 0 -170 1 -170 20 0 16 -8 19
-62 22 -55 3 -63 5 -63 23 0 18 -8 20 -67 23 -60 3 -68 5 -68 22 0 18 -7 20
-60 20 -52 0 -60 3 -60 19 0 19 -39 31 -102 31 -21 0 -28 5 -28 20 0 17 -7 20
-39 20 -30 0 -40 4 -44 20 -4 16 -14 20 -46 20 -34 0 -41 3 -41 20 0 18 -7 20
-85 20 -78 0 -85 -2 -85 -20 0 -17 -7 -20 -41 -20 -32 0 -42 -4 -46 -20 -3
-11 -14 -20 -24 -20 -17 0 -19 -9 -19 -90 0 -83 1 -90 20 -90 13 0 20 -7 20
-20 0 -13 -7 -20 -20 -20 -17 0 -20 -7 -20 -40 0 -33 -3 -40 -20 -40 -13 0
-20 -7 -20 -20 0 -13 -7 -20 -20 -20 -17 0 -19 -8 -22 -67 -3 -62 -5 -68 -25
-71 -19 -3 -23 -10 -23 -43 0 -32 -3 -39 -20 -39 -15 0 -20 7 -20 25 0 18 -5
25 -20 25 -19 0 -20 7 -20 104 0 93 2 104 18 102 15 -1 17 10 20 81 3 76 4 82
25 85 20 3 22 9 25 86 3 74 5 82 22 82 15 0 20 7 20 25 0 18 5 25 20 25 17 0
20 7 20 40 0 33 3 40 20 40 15 0 20 7 20 25 0 23 4 25 45 25 38 0 45 3 45 20
0 17 7 20 40 20 33 0 40 3 40 20 0 17 7 20 40 20 33 0 40 -3 40 -20 0 -19 7
-20 90 -20 83 0 90 1 90 20 0 18 -7 20 -84 20 -80 0 -85 1 -88 23 -3 21 -7 22
-130 25 -120 2 -128 4 -128 22 0 13 -7 20 -20 20 -13 0 -20 -7 -20 -20 0 -13
-7 -20 -20 -20 -15 0 -20 -7 -20 -25 0 -20 -5 -25 -25 -25 -22 0 -25 -4 -25
-40 0 -33 -3 -40 -20 -40 -19 0 -20 -7 -20 -169 0 -168 0 -170 -22 -173 -21
-3 -23 -9 -26 -85 -3 -75 -5 -83 -22 -83 -18 0 -20 7 -20 60 0 47 -3 60 -15
60 -12 0 -15 18 -15 105 0 87 3 105 15 105 11 0 15 12 15 45 0 38 -3 45 -20
45 -17 0 -20 -7 -20 -40 0 -33 -3 -40 -20 -40 -17 0 -20 -7 -20 -40 0 -33 -3
-40 -20 -40 -15 0 -20 -7 -20 -25 0 -20 -5 -25 -25 -25 -24 0 -25 -2 -25 -65
0 -58 -2 -65 -20 -65 -13 0 -20 7 -20 20 0 13 -7 20 -20 20 -18 0 -20 7 -20
89 0 78 2 89 18 87 15 -1 17 11 20 107 l3 107 -26 0 -25 0 0 -105 c0 -87 -3
-105 -15 -105 -13 0 -15 28 -15 190 l0 190 -25 0 c-18 0 -25 -5 -25 -20 0 -13
-7 -20 -20 -20 -18 0 -20 -7 -20 -65 0 -58 -2 -65 -20 -65 -18 0 -20 -7 -20
-65 0 -58 -2 -65 -19 -65 -16 0 -20 8 -23 43 -2 35 -7 43 -25 45 l-23 3 0 255
c0 247 -1 254 -20 254 -13 0 -20 -7 -20 -20 0 -13 -7 -20 -20 -20 -15 0 -20
-7 -20 -25 0 -20 -5 -25 -25 -25 -18 0 -25 -5 -25 -20 0 -13 -7 -20 -20 -20
-13 0 -20 -7 -20 -20 0 -13 -7 -20 -20 -20 -18 0 -20 7 -20 60 0 53 2 60 20
60 18 0 20 7 20 85 0 84 0 85 25 85 23 0 25 4 25 45 0 38 3 45 20 45 13 0 20
7 20 20 0 13 7 20 20 20 14 0 20 7 20 21 0 12 8 23 20 26 11 3 20 14 20 24 0
17 -8 19 -85 19 -78 0 -85 -2 -85 -20 0 -17 -7 -20 -45 -20 -38 0 -45 -3 -45
-20 0 -11 -7 -20 -15 -20 -12 0 -15 13 -15 60 0 53 2 60 20 60 18 0 20 7 20
65 0 58 2 65 20 65 17 0 20 7 20 40 0 33 3 40 20 40 13 0 20 7 20 20 0 18 7
20 65 20 l65 0 0 -60 c0 -53 2 -60 20 -60 18 0 20 7 20 85 0 66 -3 85 -14 85
-7 0 -16 9 -19 20 -4 15 0 20 14 20 14 0 19 7 19 25 0 24 -3 25 -60 25 l-60 0
0 40 c0 33 3 40 20 40 17 0 20 7 20 39 0 33 4 40 23 43 14 2 23 11 25 26 2 12
10 22 18 22 10 0 14 12 14 40 0 36 3 40 25 40 18 0 25 5 25 20 0 13 7 20 20
20 15 0 20 7 20 25 0 18 5 25 20 25 13 0 20 7 20 20 0 15 7 20 25 20 20 0 25
5 25 25 0 20 -5 25 -25 25 -22 0 -25 4 -25 40 l0 40 59 0 c33 0 62 -3 64 -7 3
-5 2 -34 0 -65 -4 -43 -9 -55 -19 -51 -10 4 -14 -3 -14 -21 0 -21 -5 -26 -25
-26 -24 0 -25 -3 -25 -60 0 -54 -2 -60 -20 -60 -20 0 -20 -5 -18 -132 3 -120
5 -133 21 -132 14 2 17 -6 17 -42 0 -40 2 -44 25 -44 20 0 25 -5 25 -25 0 -16
6 -25 15 -25 8 0 15 -9 15 -20 0 -15 7 -20 25 -20 18 0 25 -5 25 -20 0 -13 7
-20 20 -20 13 0 20 -7 20 -20 0 -15 7 -20 25 -20 23 0 25 -4 25 -45 0 -38 3
-45 20 -45 13 0 20 -7 20 -20 0 -13 7 -20 20 -20 18 0 20 -7 20 -61 0 -52 3
-62 20 -66 11 -3 20 -14 20 -24 0 -15 -7 -19 -40 -19 -36 0 -40 3 -40 25 0 25
-1 25 -85 25 -78 0 -85 2 -85 20 0 17 -7 20 -40 20 -33 0 -40 3 -40 20 0 15
-7 20 -25 20 -18 0 -25 5 -25 20 0 13 -7 20 -20 20 -15 0 -20 7 -20 25 0 18
-5 25 -20 25 -17 0 -20 7 -20 40 0 36 -2 40 -25 40 -23 0 -25 -4 -25 -45 0
-38 3 -45 20 -45 13 0 20 -7 20 -19 0 -13 8 -21 23 -23 18 -2 22 -9 22 -41 0
-37 0 -37 43 -37 38 0 42 -2 42 -25 0 -23 4 -25 45 -25 38 0 45 -3 45 -20 0
-17 7 -20 40 -20 33 0 40 -3 40 -20 0 -17 7 -20 45 -20 41 0 45 -2 45 -25 0
-22 4 -25 40 -25 33 0 40 -3 40 -20 0 -19 7 -20 130 -20 123 0 130 1 130 20 0
17 -7 20 -40 20 -36 0 -40 3 -40 25 0 20 -5 25 -25 25 -18 0 -25 5 -25 20 0
13 -7 20 -20 20 -15 0 -20 7 -20 25 0 18 -5 25 -20 25 -17 0 -20 7 -20 40 0
36 -2 40 -25 40 -18 0 -25 5 -25 20 0 15 7 20 25 20 33 0 35 37 3 42 -15 2
-24 11 -26 26 -2 12 -10 22 -18 22 -8 0 -14 9 -14 20 0 15 -7 20 -25 20 -18 0
-25 5 -25 20 0 13 -7 20 -20 20 -13 0 -20 7 -20 20 0 13 7 20 20 20 13 0 20
-7 20 -20 0 -17 7 -20 40 -20 33 0 40 3 40 19 0 16 -8 20 -37 23 -37 3 -38 4
-41 46 -3 34 -7 42 -23 42 -16 0 -19 7 -19 45 0 41 -2 45 -25 45 -23 0 -25 -4
-25 -44 0 -39 3 -45 23 -48 19 -3 22 -9 22 -43 l0 -40 -40 0 c-40 0 -40 0 -43
43 -3 34 -7 42 -23 42 -17 0 -19 7 -19 65 0 58 -2 65 -20 65 -19 0 -20 7 -20
105 0 98 1 105 20 105 18 0 20 7 20 65 0 58 2 65 20 65 19 0 20 7 20 105 0 98
-1 105 -20 105 -14 0 -20 7 -20 21 0 12 -8 23 -20 26 -17 5 -20 14 -20 69 0
60 -1 64 -23 64 -14 0 -24 6 -24 15 0 13 21 15 129 15 107 0 128 -2 128 -15 0
-11 11 -15 40 -15 28 0 40 4 40 14 0 8 10 16 23 18 14 2 23 11 25 26 2 14 10
22 23 22 17 0 19 -7 19 -65 0 -58 2 -65 20 -65 18 0 20 7 20 54 0 29 3 68 6
85 6 29 4 31 -20 31 -23 0 -27 4 -24 23 2 14 9 21 21 21 12 -1 17 5 17 22 0
23 2 24 84 24 80 0 85 -1 88 -22z m1748 -3 c0 -13 -27 -15 -185 -15 -158 0
-185 2 -185 15 0 13 27 15 185 15 158 0 185 -2 185 -15z m250 -40 c0 -12 -20
-15 -120 -15 -100 0 -120 3 -120 15 0 13 20 15 120 15 100 0 120 -2 120 -15z
m820 -96 c0 -17 8 -19 85 -19 l85 0 0 -35 0 -35 -149 0 -148 0 0 38 c1 31 -2
38 -21 40 -13 2 -22 11 -22 20 0 15 11 17 85 14 76 -3 85 -5 85 -23z m-470 6
c0 -12 -13 -15 -60 -15 -47 0 -60 3 -60 15 0 12 13 15 60 15 47 0 60 -3 60
-15z m-250 -39 c0 -8 -10 -16 -22 -18 -15 -2 -24 -11 -26 -25 -2 -15 -10 -23
-23 -23 -12 0 -19 -7 -19 -20 0 -13 -7 -20 -19 -20 -13 0 -21 -8 -23 -22 -2
-15 -11 -24 -25 -26 -19 -3 -23 1 -23 22 0 19 5 26 19 26 13 0 21 8 23 22 2
13 12 25 24 28 16 4 21 12 20 38 -1 32 -1 32 47 32 34 0 47 -4 47 -14z m370
-1 c0 -12 -13 -15 -55 -15 -42 0 -55 3 -55 15 0 12 13 15 55 15 42 0 55 -3 55
-15z m-4990 -40 c0 -8 -7 -15 -15 -15 -8 0 -15 7 -15 15 0 8 7 15 15 15 8 0
15 -7 15 -15z m5080 0 c0 -11 -11 -15 -40 -15 -29 0 -40 4 -40 15 0 11 11 15
40 15 29 0 40 -4 40 -15z m39 -47 c-1 -21 -2 -21 -7 -3 l-5 20 -8 -20 c-7 -19
-8 -19 -8 3 -1 13 5 22 14 22 9 0 15 -9 14 -22z m601 2 c0 -19 -7 -20 -105
-20 -98 0 -105 1 -105 20 0 19 7 20 105 20 98 0 105 -1 105 -20z m-640 -50 c0
-13 7 -20 20 -20 11 0 20 -7 20 -15 0 -11 -11 -15 -40 -15 -36 0 -40 -2 -40
-25 0 -24 -2 -25 -70 -25 -56 0 -70 -3 -70 -15 0 -11 -11 -15 -47 -13 -48 1
-48 1 -8 5 22 3 44 11 48 19 6 10 27 14 72 14 58 0 65 2 65 20 0 11 -4 20 -10
20 -5 0 -10 -7 -10 -15 0 -11 -14 -15 -57 -16 -32 -1 -61 -1 -65 0 -5 0 -7 -5
-5 -12 1 -8 -11 -12 -38 -12 -23 0 -39 5 -38 11 1 7 -22 12 -60 13 -34 1 -63
4 -65 5 -3 4 -6 45 -3 64 1 9 46 12 190 12 142 0 191 -3 194 -12 3 -8 6 -6 6
5 1 16 -15 17 -199 17 -212 0 -202 2 -202 -45 0 -54 -1 -54 65 -57 56 -3 62
-5 63 -26 1 -18 1 -19 -3 -2 -4 17 -12 20 -69 20 -62 0 -64 1 -64 25 0 23 -4
25 -40 25 -29 0 -40 4 -40 15 0 11 11 15 40 15 33 0 40 3 40 20 0 19 7 20 210
20 203 0 210 -1 210 -20z m108 13 c-10 -2 -28 -2 -40 0 -13 2 -5 4 17 4 22 1
32 -1 23 -4z m5 -20 c-13 -2 -33 -2 -45 0 -13 2 -3 4 22 4 25 0 35 -2 23 -4z
m-5193 -33 c0 -13 7 -20 20 -20 17 0 20 -7 20 -44 0 -44 0 -45 38 -49 22 -2
11 -4 -25 -4 -63 -1 -70 4 -64 40 0 4 -2 6 -6 6 -5 -1 -23 -1 -40 0 -41 1 -44
21 -3 21 17 0 30 5 30 10 0 6 -18 10 -40 10 -36 0 -40 -3 -40 -24 0 -22 5 -25
43 -28 35 -2 43 -7 45 -25 3 -21 9 -23 64 -23 51 0 61 -3 65 -20 4 -14 13 -20
32 -19 25 0 25 0 4 9 -17 7 -23 17 -22 37 l2 28 4 -27 c3 -20 10 -28 24 -28
10 0 19 -7 19 -15 0 -10 -11 -15 -35 -15 -28 0 -35 4 -35 20 0 18 -7 20 -65
20 -63 0 -65 1 -65 25 0 23 -4 25 -45 25 -45 0 -45 0 -45 35 0 35 0 35 45 35
38 0 45 3 45 20 0 11 7 20 15 20 8 0 15 -9 15 -20z m4150 -100 c0 -28 4 -40
14 -40 8 0 16 -10 18 -22 2 -15 11 -24 26 -26 20 -3 22 -9 22 -68 0 -57 2 -64
20 -64 18 0 20 -7 20 -60 0 -53 -2 -60 -20 -60 -15 0 -20 -7 -20 -25 0 -18 5
-25 20 -25 19 0 20 -7 20 -105 0 -98 -1 -105 -20 -105 -18 0 -20 7 -20 65 0
58 -2 65 -20 65 -18 0 -20 7 -20 65 0 58 -2 65 -20 65 -13 0 -20 7 -20 20 0
12 7 20 16 20 9 0 18 -9 21 -20 3 -11 14 -20 24 -20 15 0 19 7 19 40 0 33 -3
40 -20 40 -13 0 -20 7 -20 20 0 13 -7 20 -20 20 -17 0 -20 7 -20 45 0 41 -2
45 -25 45 -25 0 -25 1 -25 78 0 84 3 92 32 92 14 0 18 -8 18 -40z m500 20 c0
-15 7 -20 25 -20 18 0 25 -5 25 -20 0 -15 -7 -20 -25 -20 -23 0 -25 -4 -25
-45 0 -38 -3 -45 -20 -45 -17 0 -20 7 -20 41 0 32 4 42 20 46 11 3 20 14 20
24 0 12 -7 19 -20 19 -19 0 -27 20 -13 33 13 14 33 6 33 -13z m-3670 -5 c0 -8
-7 -15 -15 -15 -8 0 -15 7 -15 15 0 8 7 15 15 15 8 0 15 -7 15 -15z m-80 -60
c0 -38 -3 -45 -20 -45 -13 0 -20 -7 -20 -20 0 -15 -7 -20 -25 -20 -18 0 -25
-5 -25 -20 0 -13 -7 -20 -20 -20 -17 0 -20 -7 -20 -40 0 -33 -3 -40 -20 -40
-17 0 -20 -7 -20 -45 0 -38 -3 -45 -20 -45 -13 0 -20 -7 -20 -19 0 -13 -8 -21
-22 -23 -20 -3 -23 -9 -23 -46 0 -37 -3 -42 -22 -42 -20 0 -23 -5 -23 -40 0
-33 -3 -40 -20 -40 -20 0 -20 -7 -20 -325 l0 -325 -25 0 -25 0 0 -125 c0 -118
-1 -125 -20 -125 -17 0 -20 -7 -20 -40 0 -33 -3 -40 -20 -40 -17 0 -20 -7 -20
-45 0 -44 0 -45 -32 -44 -31 2 -31 2 -5 6 26 4 27 6 25 61 l-1 57 -6 -50 c-5
-39 -10 -51 -26 -54 -11 -2 -23 -8 -27 -15 -5 -7 -8 -5 -8 7 0 12 8 17 25 17
25 0 25 1 25 85 0 78 2 85 20 85 19 0 20 7 20 200 0 193 -1 200 -20 200 -19 0
-20 7 -20 185 0 178 1 185 20 185 18 0 20 7 20 64 0 55 3 64 20 69 17 4 20 14
20 66 0 54 2 61 20 61 17 0 20 7 20 46 0 25 4 43 9 39 12 -7 43 24 36 36 -4 5
5 9 19 9 19 0 26 5 26 20 0 13 7 20 20 20 13 0 20 7 20 20 0 14 7 20 21 20 12
0 23 8 26 19 4 14 15 21 42 23 29 2 37 8 39 26 2 14 10 22 23 22 12 0 19 7 19
20 0 13 7 20 20 20 13 0 20 7 20 18 0 22 8 32 27 32 9 0 13 -14 13 -45z m3710
-233 c0 -10 -7 -19 -15 -19 -8 0 -15 9 -15 19 0 10 7 18 15 18 8 0 15 -8 15
-18z m40 -87 c0 -20 5 -25 25 -25 18 0 25 -5 25 -20 0 -13 7 -20 20 -20 17 0
20 -7 20 -39 0 -32 4 -40 21 -43 19 -3 21 -9 21 -128 0 -119 -2 -125 -21 -128
-20 -3 -21 1 -21 127 0 124 -1 131 -20 131 -17 0 -20 7 -20 40 0 36 -2 40 -25
40 -18 0 -25 5 -25 20 0 17 -7 20 -40 20 -36 0 -40 3 -40 25 0 23 4 25 40 25
36 0 40 -2 40 -25z m-3167 -142 c-7 -2 -19 -2 -25 0 -7 3 -2 5 12 5 14 0 19
-2 13 -5z m2787 -202 c0 -13 8 -21 23 -23 12 -2 22 -10 22 -18 0 -8 -10 -16
-22 -18 -15 -2 -23 -10 -23 -23 0 -16 7 -19 45 -19 l45 0 0 -85 c0 -77 -2 -85
-19 -85 -10 0 -21 9 -24 20 -3 12 -14 20 -26 20 -14 0 -21 -6 -21 -20 0 -15 7
-20 25 -20 23 0 25 -4 25 -45 0 -41 -2 -45 -25 -45 -18 0 -25 -5 -25 -20 0
-13 -7 -20 -20 -20 -13 0 -20 7 -20 20 0 13 -7 20 -20 20 -17 0 -20 7 -20 45
0 38 -3 45 -19 45 -13 0 -21 -8 -23 -22 -2 -15 -10 -23 -23 -23 -13 0 -21 8
-23 23 -3 18 -10 22 -43 22 -32 0 -39 3 -39 20 0 13 7 20 20 20 13 0 20 7 20
20 0 13 7 20 20 20 13 0 20 7 20 19 0 13 8 21 23 23 18 2 23 10 25 44 2 30 8
43 20 46 13 4 17 14 16 41 l-2 37 44 0 c37 0 44 -3 44 -19z m-210 -41 c0 -13
7 -20 20 -20 13 0 20 -7 20 -20 0 -13 -7 -20 -20 -20 -15 0 -20 -7 -20 -25 0
-24 -2 -25 -65 -25 -63 0 -65 1 -65 25 0 18 5 25 20 25 13 0 20 7 20 20 0 15
7 20 25 20 18 0 25 5 25 20 0 13 7 20 20 20 13 0 20 -7 20 -20z m550 0 c0 -5
-7 -10 -15 -10 -8 0 -15 5 -15 10 0 6 7 10 15 10 8 0 15 -4 15 -10z m-720
-127 c0 -56 -2 -63 -20 -63 -18 0 -20 7 -20 63 0 56 2 63 20 63 18 0 20 -7 20
-63z m760 -3 c0 -15 7 -20 25 -20 23 0 25 -4 25 -40 0 -33 3 -40 20 -40 18 0
20 -7 20 -64 0 -58 2 -65 21 -68 19 -3 21 -9 21 -108 0 -95 -2 -105 -19 -105
-14 0 -19 -9 -21 -42 -3 -35 -7 -43 -23 -43 -16 0 -19 7 -19 45 0 38 3 45 20
45 19 0 20 7 20 105 0 98 -1 105 -20 105 -18 0 -20 7 -20 65 0 63 -1 65 -25
65 -22 0 -25 4 -25 40 0 33 -3 40 -20 40 -13 0 -20 7 -20 20 0 13 7 20 20 20
13 0 20 -7 20 -20z m-3750 -84 c0 -55 -2 -64 -17 -62 -14 2 -19 14 -21 51 -4
56 2 75 23 75 12 0 15 -13 15 -64z m-40 -131 c0 -58 -2 -65 -20 -65 -18 0 -20
-7 -20 -60 0 -57 -1 -60 -25 -60 -23 0 -25 -4 -25 -45 0 -38 -3 -45 -20 -45
-17 0 -20 -7 -20 -40 0 -33 -3 -40 -20 -40 -18 0 -20 -7 -20 -65 0 -63 -1 -65
-26 -65 -21 0 -25 -4 -21 -20 4 -16 0 -20 -19 -20 -17 0 -24 -6 -24 -20 0 -12
-7 -20 -17 -20 -13 0 -19 9 -20 34 -2 29 1 35 20 38 18 2 23 10 25 46 3 34 7
42 23 42 17 0 19 7 19 64 0 59 2 65 22 68 19 3 23 9 23 43 0 29 4 40 15 40 10
0 16 13 18 43 3 37 6 42 28 42 21 0 24 4 24 39 0 30 4 40 20 44 16 4 20 14 20
46 0 34 3 41 20 41 18 0 20 -7 20 -65z m590 -310 l0 -85 -37 2 c-37 1 -37 1
-5 5 l32 4 0 80 c0 43 2 79 5 79 3 0 5 -38 5 -85z m2990 -30 c0 -18 5 -25 20
-25 11 0 20 -7 20 -15 0 -8 -9 -15 -20 -15 -18 0 -20 -7 -20 -64 0 -55 -3 -64
-20 -69 -16 -4 -20 -14 -20 -46 0 -34 3 -41 20 -41 13 0 20 7 20 20 0 15 7 20
25 20 25 0 25 1 25 90 0 83 1 90 20 90 17 0 20 -7 20 -45 0 -38 3 -45 20 -45
17 0 20 -7 20 -45 0 -38 -3 -45 -20 -45 -13 0 -20 -7 -20 -20 0 -13 7 -20 20
-20 19 0 20 -7 20 -150 0 -143 -1 -150 -20 -150 -17 0 -20 -7 -20 -39 0 -33
-4 -40 -22 -43 -15 -2 -23 -10 -23 -23 0 -16 -8 -21 -42 -23 -35 -3 -43 -7
-43 -23 0 -17 -8 -19 -85 -19 -78 0 -85 2 -85 20 0 17 -7 20 -39 20 -33 0 -40
4 -43 23 -2 14 -11 23 -25 25 -15 2 -23 10 -23 23 0 12 -7 19 -20 19 -19 0
-21 5 -18 63 3 52 6 62 21 61 12 -1 17 5 17 22 0 19 5 24 25 24 18 0 25 5 25
19 0 11 8 21 17 23 10 2 18 12 18 23 0 13 8 21 23 23 18 3 22 10 22 43 0 32 3
39 19 39 16 0 20 8 23 43 2 34 7 42 23 42 18 0 20 8 23 83 3 74 5 82 22 82 15
0 20 7 20 25 0 23 4 25 40 25 36 0 40 -2 40 -25z m260 -170 c0 -58 2 -65 20
-65 18 0 20 -7 20 -85 0 -78 2 -85 20 -85 19 0 20 -7 20 -125 l0 -125 25 0 25
0 0 -149 c0 -148 0 -150 -22 -153 -21 -3 -23 -9 -26 -65 -3 -55 -6 -63 -22
-63 -13 0 -20 -7 -20 -20 0 -13 -7 -20 -20 -20 -13 0 -20 7 -20 20 0 13 7 20
20 20 18 0 20 7 20 65 0 58 2 65 20 65 19 0 20 7 20 125 0 118 -1 125 -20 125
-19 0 -20 7 -20 150 0 143 -1 150 -20 150 -18 0 -20 7 -20 85 0 84 0 85 -25
85 -24 0 -25 2 -25 65 0 63 1 65 25 65 24 0 25 -2 25 -65z m-3889 13 c-1 -5
-1 -24 -1 -43 0 -24 -5 -35 -15 -35 -11 0 -15 12 -15 46 0 36 3 45 16 42 8 -2
15 -6 15 -10z m-41 -118 c0 -33 -3 -40 -20 -40 -17 0 -20 7 -20 40 0 33 3 40
20 40 17 0 20 -7 20 -40z m-216 -24 c-5 -12 -11 -13 -31 -3 -19 9 -26 8 -34
-4 -7 -11 -9 -11 -9 4 0 13 8 17 40 17 30 0 38 -3 34 -14z m-107 -53 c-3 -10
-5 -4 -5 12 0 17 2 24 5 18 2 -7 2 -21 0 -30z m63 17 c0 -14 -6 -20 -22 -19
-17 1 -19 2 -5 6 9 2 17 11 17 19 0 8 2 14 5 14 3 0 5 -9 5 -20z m215 -23 c1
-24 -4 -37 -12 -37 -9 0 -13 14 -13 41 0 28 4 39 13 36 6 -2 12 -20 12 -40z
m942 11 c-3 -8 -6 -5 -6 6 -1 11 2 17 5 13 3 -3 4 -12 1 -19z m-1200 -40 c-3
-8 -6 -5 -6 6 -1 11 2 17 5 13 3 -3 4 -12 1 -19z m223 -98 c0 -77 -1 -80 -22
-79 -17 1 -19 2 -5 6 9 2 17 9 17 14 0 10 -7 11 -37 3 -21 -6 -23 -13 -26 -98
l-3 -91 -2 98 c-2 91 -1 97 18 97 18 0 20 7 20 65 0 58 2 65 20 65 18 0 20 -7
20 -80z m1007 -166 c-3 -3 -12 -4 -19 -1 -8 3 -5 6 6 6 11 1 17 -2 13 -5z
m-30 -96 c-2 -18 -4 -6 -4 27 0 33 2 48 4 33 2 -15 2 -42 0 -60z m2393 67 c0
-8 -9 -15 -20 -15 -11 0 -20 7 -20 15 0 8 9 15 20 15 11 0 20 -7 20 -15z m-46
-56 c7 -37 1 -49 -25 -49 -12 0 -19 -7 -19 -20 0 -13 -7 -20 -20 -20 -13 0
-20 7 -20 20 0 13 7 20 19 20 15 0 21 10 26 40 8 48 30 53 39 9z m86 -9 c0
-33 -3 -40 -20 -40 -17 0 -20 7 -20 40 0 33 3 40 20 40 17 0 20 -7 20 -40z
m-770 -20 c0 -18 7 -20 85 -20 l85 0 0 -85 c0 -78 -2 -85 -20 -85 -18 0 -20
-7 -20 -85 l0 -85 -40 0 -40 0 0 45 c0 38 -3 45 -20 45 -18 0 -20 7 -20 60 0
53 -2 60 -20 60 -18 0 -20 7 -20 85 0 69 3 85 15 85 8 0 15 -9 15 -20z m-420
0 c0 -5 -9 -10 -20 -10 -11 0 -20 5 -20 10 0 6 9 10 20 10 11 0 20 -4 20 -10z
m1010 0 c0 -5 -4 -10 -10 -10 -5 0 -10 5 -10 10 0 6 5 10 10 10 6 0 10 -4 10
-10z m-1350 -65 c0 -38 3 -45 20 -45 17 0 20 -7 20 -40 0 -33 3 -40 20 -40 18
0 20 -7 20 -85 0 -78 2 -85 20 -85 17 0 20 7 20 39 0 30 4 40 20 44 25 6 28 1
26 -46 -1 -32 2 -37 22 -37 21 0 22 -4 22 -64 0 -59 -2 -65 -22 -68 -21 -3
-23 -9 -26 -65 -3 -55 -6 -63 -22 -63 -19 0 -20 -8 -20 -150 0 -143 -1 -150
-20 -150 -17 0 -20 7 -20 45 0 38 -3 45 -20 45 -18 0 -20 7 -20 85 0 78 -2 85
-20 85 -19 0 -20 7 -20 105 l0 105 -25 0 c-23 0 -25 4 -25 45 0 38 -3 45 -20
45 -18 0 -20 7 -20 59 0 50 -3 59 -20 64 -17 4 -20 14 -20 65 l0 61 42 3 42 3
-1 43 c0 38 2 42 23 42 22 0 24 -4 24 -45z m370 -20 c0 -63 1 -65 25 -65 18 0
25 -5 25 -20 0 -13 7 -20 20 -20 18 0 20 -7 20 -65 0 -58 2 -65 20 -65 13 0
20 -7 20 -20 0 -13 -7 -20 -20 -20 -13 0 -20 -7 -20 -20 0 -13 -7 -20 -19 -20
-14 0 -18 5 -14 20 4 16 0 20 -21 20 -25 0 -26 2 -26 60 0 53 2 60 20 60 15 0
20 7 20 25 0 23 -4 25 -40 25 l-40 0 0 85 c0 69 3 85 15 85 12 0 15 -14 15
-65z m690 45 c0 -11 -7 -20 -15 -20 -8 0 -15 9 -15 20 0 11 7 20 15 20 8 0 15
-9 15 -20z m80 0 c0 -11 -7 -20 -15 -20 -8 0 -15 9 -15 20 0 11 7 20 15 20 8
0 15 -9 15 -20z m90 0 c0 -13 -7 -20 -20 -20 -15 0 -20 -7 -20 -25 0 -20 5
-25 25 -25 20 0 25 5 25 24 0 17 5 24 17 22 10 -2 18 -11 18 -22 0 -12 8 -20
23 -22 17 -3 22 2 22 17 0 14 6 21 20 21 13 0 20 -7 20 -20 0 -18 7 -20 65
-20 58 0 65 -2 65 -20 0 -17 7 -20 45 -20 37 0 45 -3 45 -19 0 -10 9 -21 20
-24 17 -4 20 -14 20 -66 0 -54 2 -61 20 -61 18 0 20 7 20 65 0 58 -2 65 -20
65 -18 0 -20 7 -20 64 0 59 2 64 20 59 16 -4 20 0 20 21 0 25 2 26 65 26 l65
0 0 -85 c0 -78 -2 -85 -20 -85 -18 0 -20 -7 -20 -85 0 -78 -2 -85 -20 -85 -13
0 -20 7 -20 20 0 15 -7 20 -25 20 l-25 0 0 -130 c0 -122 -1 -130 -20 -130 -16
0 -19 -8 -22 -62 l-3 -63 -40 0 c-40 0 -40 0 -43 -42 -3 -35 -7 -43 -23 -43
-17 0 -19 -7 -19 -65 0 -58 -2 -65 -19 -65 -13 0 -21 8 -23 23 -2 14 -11 23
-25 25 -19 3 -23 -1 -23 -22 0 -19 -5 -26 -20 -26 -15 0 -20 7 -20 25 0 18 -5
25 -20 25 -15 0 -20 -7 -20 -25 0 -18 -5 -25 -20 -25 -15 0 -20 7 -20 25 0 20
-5 25 -25 25 -18 0 -25 5 -25 20 0 13 -7 20 -20 20 -13 0 -20 7 -20 20 0 13
-7 20 -20 20 -15 0 -20 7 -20 25 0 22 -4 25 -39 25 -30 0 -40 4 -43 17 -3 14
-12 17 -46 15 -39 -3 -42 -2 -42 22 0 21 -5 26 -25 26 -18 0 -25 5 -25 20 0
13 -7 20 -20 20 -18 0 -20 7 -20 65 0 58 2 65 19 65 13 0 21 8 23 23 2 12 10
22 18 22 10 0 17 13 20 40 4 34 9 40 28 39 21 -1 22 3 22 63 0 61 1 63 25 63
23 0 25 4 25 45 0 38 3 45 20 45 12 0 20 7 20 16 0 9 -9 18 -20 21 -24 6 -28
53 -5 53 9 0 15 -9 15 -25 0 -18 5 -25 20 -25 13 0 20 -7 20 -20 0 -15 7 -20
25 -20 18 0 25 5 25 20 0 13 -7 20 -20 20 -15 0 -20 7 -20 25 0 18 5 25 20 25
13 0 20 7 20 20 0 13 7 20 20 20 13 0 20 -7 20 -20z m90 0 c0 -13 -7 -20 -20
-20 -13 0 -20 7 -20 20 0 13 7 20 20 20 13 0 20 -7 20 -20z m-300 -45 c0 -18
-5 -25 -20 -25 -15 0 -20 7 -20 25 0 18 5 25 20 25 15 0 20 -7 20 -25z m-30
-91 c0 -17 -6 -28 -20 -31 -17 -4 -20 -15 -22 -87 -3 -76 -4 -81 -26 -82 -18
-1 -19 -1 -2 3 18 4 20 12 20 89 0 77 2 84 20 84 15 0 20 7 20 25 0 14 2 25 5
25 3 0 5 -12 5 -26z m1010 -59 c0 -84 0 -85 25 -85 23 0 25 4 25 40 0 29 4 40
15 40 11 0 15 -11 15 -40 0 -27 -4 -39 -12 -37 -10 1 -14 -22 -16 -85 -2 -74
0 -88 13 -88 13 0 15 -22 15 -150 0 -127 -2 -150 -15 -150 -12 0 -15 -14 -15
-65 0 -63 -1 -65 -25 -65 -24 0 -25 -3 -25 -60 0 -53 -2 -60 -20 -60 -18 0
-20 7 -20 60 0 53 2 60 20 60 18 0 20 7 20 64 0 59 2 65 23 68 22 3 22 5 22
148 0 143 0 145 -22 148 -22 3 -23 8 -23 88 0 77 -2 84 -20 84 -18 0 -20 7
-20 85 0 78 2 85 20 85 18 0 20 -7 20 -85z m-980 50 c0 -14 -2 -25 -4 -25 -2
0 -6 11 -8 25 -3 14 -1 25 3 25 5 0 9 -11 9 -25z m-22 -42 c-27 -4 -28 -6 -30
-71 l-2 -67 -3 59 c-5 74 0 86 34 85 l28 -2 -27 -4z m-1591 -146 c-2 -23 -3
-1 -3 48 0 50 1 68 3 42 2 -26 2 -67 0 -90z m1143 -72 l0 -85 -40 0 -40 0 0
60 c0 53 2 60 20 60 15 0 20 7 20 25 0 18 5 25 20 25 18 0 20 -7 20 -85z
m-2673 -52 c-2 -21 -4 -4 -4 37 0 41 2 58 4 38 2 -21 2 -55 0 -75z m3030 40
c-2 -16 -4 -5 -4 22 0 28 2 40 4 28 2 -13 2 -35 0 -50z m-57 -143 l0 -190 -25
0 c-18 0 -25 -5 -25 -20 0 -28 -28 -25 -32 3 -3 19 -9 22 -46 22 l-42 0 0 82
c0 77 1 82 23 85 12 2 22 10 22 18 0 8 9 17 20 20 15 5 21 16 23 48 3 34 7 42
23 42 16 0 19 7 19 40 0 33 3 40 20 40 19 0 20 -7 20 -190z m-1163 118 c-3 -8
-6 -5 -6 6 -1 11 2 17 5 13 3 -3 4 -12 1 -19z m613 -93 c0 -38 3 -45 20 -45
17 0 20 -7 20 -45 0 -38 3 -45 20 -45 11 0 20 -7 20 -15 0 -8 9 -15 20 -15 15
0 20 -7 20 -25 0 -20 5 -25 26 -25 21 0 25 -4 21 -20 -4 -16 0 -20 19 -20 19
0 24 -5 24 -24 0 -19 4 -23 20 -19 16 4 20 0 20 -21 0 -19 -5 -26 -20 -26 -19
0 -20 -7 -20 -104 0 -101 -1 -105 -22 -108 -15 -2 -23 -10 -23 -23 0 -13 -7
-20 -20 -20 -13 0 -21 -8 -23 -22 -2 -14 -10 -23 -22 -23 -10 0 -20 -9 -23
-20 -3 -11 -12 -20 -21 -20 -12 0 -16 10 -16 40 0 33 -3 40 -20 40 -17 0 -19
8 -22 68 -3 61 -5 67 -25 70 -19 3 -23 10 -23 43 0 32 -3 39 -20 39 -17 0 -20
-7 -20 -40 0 -37 -2 -40 -26 -40 -24 0 -26 3 -20 31 3 17 6 112 6 210 0 172 1
179 20 179 17 0 20 7 20 45 l0 45 45 0 45 0 0 -45z m-2449 -45 c5 0 9 -9 9
-21 0 -12 8 -23 20 -26 11 -3 20 -14 20 -24 0 -14 7 -19 25 -19 24 0 25 2 25
65 0 51 3 65 15 65 17 0 20 -68 15 -277 l-2 -113 26 0 c18 0 26 -5 25 -17 0
-11 -3 -13 -6 -5 -2 6 -12 12 -21 12 -15 0 -15 -2 -2 -10 11 -7 -3 -10 -47
-10 l-63 0 -2 68 -2 67 -6 -70 -6 -70 -2 68 c-2 60 -4 67 -22 67 -19 0 -20 6
-18 158 0 86 3 142 5 125 2 -18 8 -33 14 -33z m-84 8 c-3 -7 -5 -2 -5 12 0 14
2 19 5 13 2 -7 2 -19 0 -25z m393 -198 c0 -18 7 -20 85 -20 l85 0 0 -70 c0
-62 2 -70 19 -70 24 0 31 -26 31 -122 0 -72 -1 -77 -22 -80 -21 -3 -23 -9 -26
-65 -3 -55 -6 -63 -22 -63 -15 0 -20 7 -20 25 0 18 -5 25 -20 25 -13 0 -20 7
-20 20 0 13 -7 20 -20 20 -16 0 -19 8 -22 63 -3 56 -5 62 -25 65 -19 3 -23 10
-23 43 0 32 3 39 20 39 13 0 20 7 20 20 0 16 -7 20 -34 20 l-35 0 -3 85 c-3
76 -1 85 15 85 10 0 17 -8 17 -20z m2940 0 c0 -11 -7 -20 -15 -20 -8 0 -15 9
-15 20 0 11 7 20 15 20 8 0 15 -9 15 -20z m-130 -47 c0 -14 -6 -23 -15 -23 -9
0 -15 9 -15 23 0 14 6 24 15 24 9 0 15 -10 15 -24z m90 2 c0 -16 -6 -25 -15
-25 -28 0 -18 40 13 49 1 1 2 -10 2 -24z m80 -2 c0 -14 -6 -23 -15 -23 -9 0
-15 9 -15 23 0 14 6 24 15 24 9 0 15 -10 15 -24z m518 -126 c3 -101 2 -107
-17 -107 -18 0 -20 -8 -23 -62 -2 -49 -7 -63 -20 -66 -11 -2 -18 5 -20 20 -2
15 -10 23 -23 23 -18 0 -20 8 -23 88 -2 78 -5 87 -22 87 -17 0 -20 -9 -22 -87
-3 -73 -6 -87 -20 -89 -15 -2 -18 6 -18 42 0 40 -2 44 -25 44 -20 0 -25 5 -25
25 0 18 -5 25 -20 25 -17 0 -20 -7 -20 -45 0 -38 3 -45 20 -45 18 0 20 -7 20
-85 0 -78 -2 -85 -20 -85 -13 0 -20 -7 -20 -20 0 -13 -7 -20 -20 -20 -15 0
-20 -7 -20 -25 0 -18 -5 -25 -20 -25 -19 0 -20 7 -20 175 l0 175 40 0 c33 0
40 3 40 20 0 18 7 20 65 20 58 0 65 2 65 20 0 17 7 20 45 20 l45 0 0 -65 c0
-58 2 -65 20 -65 18 0 20 7 20 61 0 52 -3 62 -20 66 -26 7 -26 39 1 46 12 3
18 10 14 16 -9 16 2 30 23 27 15 -3 17 -17 20 -109z m-978 3 c0 -15 -7 -20
-25 -20 l-26 0 3 -127 c3 -124 4 -128 26 -131 22 -3 22 -2 22 107 0 104 1 111
20 111 13 0 20 7 20 20 0 17 7 20 45 20 l46 0 -3 -87 c-3 -79 -5 -88 -22 -88
-16 0 -20 -7 -20 -40 -1 -40 -1 -40 -43 -43 -35 -3 -43 -7 -43 -23 0 -12 7
-19 20 -19 13 0 20 -7 20 -20 0 -13 -7 -20 -20 -20 -13 0 -20 7 -20 20 0 17
-7 20 -40 20 -33 0 -40 3 -40 19 0 13 -8 21 -22 23 -22 3 -23 7 -26 131 l-3
127 26 0 c18 0 25 5 25 20 0 17 7 20 40 20 33 0 40 -3 40 -20z m340 -105 c0
-38 3 -45 20 -45 18 0 20 -7 20 -85 0 -78 -2 -85 -20 -85 -17 0 -20 -7 -20
-45 0 -38 -3 -45 -20 -45 -17 0 -20 7 -20 45 l0 45 -45 0 -45 0 0 40 c0 33 -3
40 -20 40 -18 0 -20 7 -20 83 0 46 3 87 7 90 3 4 42 7 85 7 l78 0 0 -45z m210
-25 c0 -63 -2 -70 -20 -70 -13 0 -20 -7 -20 -20 0 -13 -7 -20 -20 -20 -17 0
-20 -7 -20 -40 0 -36 -2 -40 -25 -40 -18 0 -25 -5 -25 -20 0 -13 -7 -20 -19
-20 -14 0 -18 5 -14 20 3 11 12 20 19 20 11 0 14 19 14 85 0 69 -3 85 -15 85
-11 0 -15 12 -15 45 l0 45 80 0 80 0 0 -70z m-2520 -195 c0 -104 -2 -125 -15
-125 -12 0 -15 17 -15 94 0 51 -3 108 -6 125 -6 27 -4 31 15 31 20 0 21 -4 21
-125z m-590 20 c0 -16 6 -25 15 -25 11 0 15 -11 15 -40 0 -36 3 -40 25 -40 24
0 25 -2 25 -65 0 -58 2 -65 20 -65 13 0 20 -7 20 -20 0 -14 7 -20 23 -20 20 0
22 -4 19 -45 -4 -43 -3 -45 22 -45 19 0 26 -5 26 -19 0 -13 -6 -18 -22 -16
-13 1 -51 3 -85 4 -56 1 -63 3 -63 21 0 11 -6 20 -14 20 -10 0 -16 14 -18 42
-3 37 -6 43 -25 42 -20 0 -23 4 -23 43 0 24 -4 43 -10 43 -5 0 -11 10 -11 23
-1 18 -3 16 -9 -8 l-8 -30 -2 30 c-1 17 -3 39 -4 50 0 12 -8 19 -18 19 -11 -1
-18 5 -18 17 0 12 7 19 20 19 15 0 20 7 20 25 0 14 3 24 8 24 22 -4 32 3 32
21 0 13 7 20 20 20 15 0 20 -7 20 -25z m470 -85 c0 -63 2 -70 20 -70 13 0 20
-7 20 -20 0 -13 7 -20 20 -20 13 0 20 -7 20 -20 0 -13 7 -20 20 -20 13 0 20
-7 20 -20 0 -15 7 -20 25 -20 18 0 25 -5 25 -20 0 -15 -7 -20 -25 -20 -23 0
-25 -4 -25 -44 0 -36 -3 -44 -17 -42 -10 2 -19 13 -21 24 -2 12 -10 22 -18 22
-8 0 -14 9 -14 20 0 16 -7 20 -37 21 -21 1 -41 1 -45 0 -5 0 -8 10 -8 24 0 18
-5 25 -20 25 -13 0 -20 7 -20 20 0 15 -7 20 -25 20 -22 0 -25 4 -25 40 l0 40
-40 0 c-33 0 -40 3 -40 20 0 17 7 20 40 20 36 0 40 3 40 25 0 23 4 25 45 25
38 0 45 3 45 20 0 13 7 20 20 20 18 0 20 -7 20 -70z m168 -83 c2 -12 -3 -17
-17 -17 -15 0 -21 6 -21 21 0 25 33 22 38 -4z m302 -102 c0 -38 3 -45 20 -45
18 0 20 -7 20 -65 0 -58 2 -65 20 -65 13 0 20 -7 20 -20 0 -13 7 -20 20 -20
17 0 20 -7 20 -40 0 -33 -3 -40 -20 -40 -13 0 -20 7 -20 20 0 13 -7 20 -19 20
-13 0 -18 7 -17 22 1 17 -5 24 -21 26 -13 2 -23 10 -23 18 0 10 -12 14 -39 14
-40 0 -40 0 -43 43 -2 35 -7 43 -25 45 -30 4 -32 42 -3 42 13 0 20 7 20 19 0
13 8 21 23 23 12 2 23 10 23 18 1 8 2 18 3 23 0 4 10 7 21 7 17 0 20 -7 20
-45z m-650 20 c0 -8 -7 -15 -15 -15 -8 0 -15 7 -15 15 0 8 7 15 15 15 8 0 15
-7 15 -15z m40 -45 c0 -11 -7 -20 -15 -20 -8 0 -15 9 -15 20 0 11 7 20 15 20
8 0 15 -9 15 -20z"/>
<path d="M2160 5516 c0 -24 -5 -36 -17 -39 -14 -4 -12 -5 5 -6 19 -1 22 4 22
39 0 22 -2 40 -5 40 -3 0 -5 -15 -5 -34z"/>
<path d="M2650 5485 c0 -13 68 -15 550 -15 482 0 550 2 550 15 0 13 -68 15
-550 15 -482 0 -550 -2 -550 -15z m822 -2 c-149 -2 -395 -2 -545 0 -149 1 -27
2 273 2 300 0 422 -1 272 -2z"/>
<path d="M2350 5440 c0 -19 7 -20 145 -20 138 0 145 1 145 20 0 19 -7 20 -145
20 -138 0 -145 -1 -145 -20z m280 0 c0 -6 -52 -10 -135 -10 -83 0 -135 4 -135
10 0 6 52 10 135 10 83 0 135 -4 135 -10z"/>
<path d="M3760 5440 c0 -20 7 -20 270 -20 263 0 270 0 270 20 0 20 -7 20 -270
20 -263 0 -270 0 -270 -20z m530 0 c0 -6 -93 -10 -260 -10 -167 0 -260 4 -260
10 0 6 93 10 260 10 167 0 260 -4 260 -10z"/>
<path d="M1591 5434 c0 -11 3 -14 6 -6 3 7 2 16 -1 19 -3 4 -6 -2 -5 -13z"/>
<path d="M4310 5395 c0 -13 23 -15 145 -15 122 0 145 2 145 15 0 13 -23 15
-145 15 -122 0 -145 -2 -145 -15z m212 -2 c-40 -2 -103 -2 -140 0 -37 2 -4 3
73 3 77 0 107 -2 67 -3z"/>
<path d="M4610 5355 c0 -12 17 -15 103 -13 l102 2 -100 6 -100 6 100 5 100 5
-102 2 c-86 2 -103 -1 -103 -13z"/>
<path d="M2017 5223 c18 -2 50 -2 70 0 21 2 7 4 -32 4 -38 0 -55 -2 -38 -4z"/>
<path d="M2660 5270 c0 -7 187 -10 540 -10 353 0 540 3 540 10 0 7 -187 10
-540 10 -353 0 -540 -3 -540 -10z"/>
<path d="M4310 5179 c0 -5 63 -9 140 -9 90 0 140 4 140 10 0 7 -49 10 -140 9
-77 0 -140 -5 -140 -10z"/>
<path d="M2098 5093 c6 -2 18 -2 25 0 6 3 1 5 -13 5 -14 0 -19 -2 -12 -5z"/>
<path d="M2070 5065 c0 -8 -7 -15 -16 -15 -9 0 -18 -9 -21 -19 -3 -11 -13 -21
-24 -24 -14 -4 -19 -13 -18 -34 l2 -28 4 28 c3 19 10 27 24 27 12 0 19 7 19
20 0 13 7 20 20 20 13 0 20 7 20 20 0 11 -2 20 -5 20 -3 0 -5 -7 -5 -15z"/>
<path d="M1950 4936 c0 -8 -8 -17 -17 -19 -14 -4 -12 -5 5 -6 16 -1 22 5 22
19 0 11 -2 20 -5 20 -3 0 -5 -6 -5 -14z"/>
<path d="M1878 4873 c6 -2 18 -2 25 0 6 3 1 5 -13 5 -14 0 -19 -2 -12 -5z"/>
<path d="M1860 4851 c0 -5 -8 -12 -17 -14 -14 -4 -12 -5 5 -6 13 -1 22 5 22
14 0 8 -2 15 -5 15 -3 0 -5 -4 -5 -9z"/>
<path d="M1808 4793 c7 -3 16 -2 19 1 4 3 -2 6 -13 5 -11 0 -14 -3 -6 -6z"/>
<path d="M1780 4746 c0 -24 -5 -36 -17 -39 -14 -4 -12 -5 5 -6 19 -1 22 4 22
39 0 22 -2 40 -5 40 -3 0 -5 -15 -5 -34z"/>
<path d="M3770 4798 c0 -5 61 -8 135 -8 74 0 135 3 135 8 0 4 -61 7 -135 7
-74 0 -135 -3 -135 -7z"/>
<path d="M4520 4798 c0 -5 63 -8 140 -8 77 0 140 3 140 8 0 4 -63 7 -140 7
-77 0 -140 -3 -140 -7z"/>
<path d="M3273 4713 c32 -2 81 -2 110 0 29 2 3 3 -58 3 -60 0 -84 -1 -52 -3z"/>
<path d="M3553 4713 c26 -2 68 -2 95 0 26 2 4 3 -48 3 -52 0 -74 -1 -47 -3z"/>
<path d="M5080 4708 c0 -5 44 -7 98 -6 100 1 88 5 -31 10 -37 2 -67 0 -67 -4z"/>
<path d="M5428 4613 c6 -2 18 -2 25 0 6 3 1 5 -13 5 -14 0 -19 -2 -12 -5z"/>
<path d="M5508 4613 c7 -3 16 -2 19 1 4 3 -2 6 -13 5 -11 0 -14 -3 -6 -6z"/>
<path d="M5470 4590 c0 -11 4 -20 9 -20 5 0 7 9 4 20 -3 11 -7 20 -9 20 -2 0
-4 -9 -4 -20z"/>
<path d="M5530 4551 c0 -5 -8 -12 -17 -14 -14 -4 -12 -5 5 -6 13 -1 22 5 22
14 0 8 -2 15 -5 15 -3 0 -5 -4 -5 -9z"/>
<path d="M5551 4503 c0 -13 2 -14 6 -4 5 11 7 11 14 0 7 -11 9 -10 9 4 0 9 -7
17 -15 17 -8 0 -15 -8 -14 -17z"/>
<path d="M5618 4473 c6 -2 18 -2 25 0 6 3 1 5 -13 5 -14 0 -19 -2 -12 -5z"/>
<path d="M5641 4424 c0 -11 3 -14 6 -6 3 7 2 16 -1 19 -3 4 -6 -2 -5 -13z"/>
<path d="M3240 4375 c0 -8 -9 -15 -20 -15 -18 0 -20 -7 -20 -65 0 -58 -2 -65
-19 -65 -13 0 -21 -8 -23 -22 -4 -31 -48 -39 -48 -9 0 14 -6 21 -20 21 -13 0
-20 -7 -20 -20 0 -13 7 -20 20 -20 13 0 20 -7 20 -19 0 -13 8 -21 23 -23 20
-3 22 -8 22 -63 0 -53 -2 -60 -20 -60 -13 0 -20 7 -20 20 0 13 -8 21 -22 23
-21 3 -23 -1 -23 -42 0 -39 -3 -46 -20 -46 -17 0 -20 -7 -20 -45 0 -37 -3 -45
-19 -45 -10 0 -21 -9 -24 -20 -4 -16 -14 -20 -46 -20 -34 0 -41 -3 -41 -20 0
-17 -7 -20 -45 -20 l-45 0 0 59 c0 54 2 60 23 63 21 3 22 8 25 111 2 99 4 107
22 107 18 0 20 7 20 85 0 78 -2 85 -20 85 -16 0 -19 -8 -22 -62 -3 -57 -5 -63
-25 -66 -19 -3 -23 -10 -23 -43 0 -32 -3 -39 -20 -39 -17 0 -20 -7 -20 -45 0
-38 -3 -45 -20 -45 -18 0 -20 -7 -20 -65 0 -58 -2 -65 -20 -65 -18 0 -20 -7
-20 -60 0 -53 2 -60 20 -60 17 0 20 -7 20 -45 0 -38 -3 -45 -20 -45 -15 0 -20
-7 -20 -25 0 -18 5 -25 20 -25 15 0 20 7 20 25 0 18 5 25 20 25 18 0 20 -7 20
-65 0 -58 2 -65 20 -65 13 0 20 -7 20 -20 0 -13 7 -20 19 -20 13 0 21 -8 23
-22 2 -15 11 -24 26 -26 32 -5 30 -42 -3 -42 -18 0 -25 -5 -25 -20 0 -13 -7
-20 -20 -20 -13 0 -20 -7 -20 -20 0 -17 7 -20 45 -20 38 0 45 -3 45 -20 0 -13
7 -20 19 -20 13 0 21 -8 23 -22 2 -15 11 -24 26 -26 14 -2 22 -10 22 -23 0
-16 7 -19 40 -19 33 0 40 -3 40 -20 0 -17 7 -20 44 -20 84 0 166 -12 166 -25
0 -7 -9 -15 -20 -18 -18 -5 -20 -14 -20 -91 0 -79 -2 -86 -20 -86 -18 0 -20
-7 -20 -60 0 -53 -2 -60 -20 -60 -17 0 -20 -7 -20 -45 0 -41 -2 -45 -25 -45
-23 0 -25 -4 -25 -45 0 -38 -3 -45 -20 -45 -17 0 -20 7 -20 45 l0 45 -190 0
c-183 0 -190 -1 -190 -20 0 -15 -7 -20 -25 -20 -22 0 -25 -4 -25 -40 0 -33 -3
-40 -20 -40 -19 0 -20 -7 -20 -130 l0 -130 25 0 c24 0 25 3 25 60 0 53 2 60
20 60 15 0 20 7 20 25 0 18 5 25 20 25 13 0 20 7 20 20 0 15 7 20 25 20 18 0
25 5 25 20 0 15 9 21 40 26 24 4 40 12 40 20 0 11 23 14 105 14 l105 0 0 -60
c0 -53 2 -60 20 -60 13 0 20 7 20 19 0 13 8 21 23 23 18 2 23 10 25 41 3 36 4
37 43 37 28 0 39 -4 39 -15 0 -12 16 -15 85 -15 84 0 85 0 85 -25 0 -24 2 -25
65 -25 58 0 65 -2 65 -20 0 -18 7 -20 84 -20 80 0 85 -1 88 -22 3 -22 8 -23
104 -26 92 -2 102 -5 107 -22 4 -16 14 -20 46 -20 37 0 41 2 41 26 0 14 -4 23
-9 20 -18 -11 -69 6 -74 25 -5 17 -16 19 -111 19 -99 0 -106 1 -106 20 0 18
-7 20 -85 20 -84 0 -85 0 -85 25 0 24 -2 25 -65 25 -50 0 -65 3 -65 15 0 11
-18 15 -82 17 -77 3 -83 5 -86 26 -2 14 -10 22 -23 22 -12 0 -19 7 -19 20 0
13 7 20 20 20 17 0 20 7 20 45 0 38 3 45 20 45 15 0 20 -7 20 -25 0 -25 1 -25
90 -25 83 0 90 -1 90 -20 0 -18 7 -20 60 -20 53 0 60 -2 60 -20 0 -18 7 -20
65 -20 58 0 65 2 65 20 0 18 -7 20 -65 20 -63 0 -65 1 -65 25 0 24 -3 25 -60
25 -53 0 -60 2 -60 20 0 19 -7 20 -90 20 l-90 0 0 59 c0 54 2 60 23 63 14 2
23 11 25 26 3 18 10 22 43 22 32 0 39 3 39 20 0 17 7 20 45 20 38 0 45 -3 45
-20 0 -13 7 -20 20 -20 14 0 20 -7 20 -22 0 -20 5 -23 42 -23 37 0 43 -3 46
-22 3 -19 10 -23 42 -23 29 0 39 -4 43 -20 3 -12 14 -20 26 -20 14 0 21 -6 21
-19 0 -11 9 -21 21 -24 15 -4 20 -11 16 -21 -5 -12 0 -16 18 -16 20 0 25 -5
25 -25 0 -18 5 -25 20 -25 13 0 20 -7 20 -20 0 -15 7 -20 25 -20 18 0 25 -5
25 -20 0 -13 7 -20 20 -20 13 0 20 7 20 20 0 13 -7 20 -19 20 -16 0 -20 8 -23
43 -2 35 -7 43 -25 45 -15 2 -23 10 -23 23 0 12 -7 19 -20 19 -13 0 -20 7 -20
19 0 13 -8 21 -22 23 -19 2 -24 10 -26 40 -3 36 -6 38 -43 44 -38 6 -39 8 -39
45 0 39 0 39 -40 39 -37 0 -48 10 -37 36 1 3 57 5 125 5 l122 -2 0 25 c0 34
37 37 42 4 2 -15 11 -24 26 -26 14 -2 22 -10 22 -23 0 -16 7 -19 40 -19 33 0
40 -3 40 -20 0 -13 7 -20 20 -20 13 0 20 7 20 20 0 13 -7 20 -20 20 -13 0 -20
7 -20 19 0 10 -9 21 -20 24 -12 3 -20 14 -20 26 0 18 -6 21 -39 21 -30 0 -40
4 -44 20 -3 12 -14 20 -26 20 -14 0 -21 6 -21 20 0 13 -7 20 -20 20 -13 0 -20
7 -20 19 0 13 -8 21 -22 23 -15 2 -24 11 -26 26 -2 12 -10 22 -18 22 -8 0 -14
9 -14 20 0 11 7 20 15 20 8 0 15 9 15 20 0 15 7 20 25 20 24 0 25 2 25 65 0
58 2 65 20 65 18 0 20 7 20 59 0 54 2 60 23 63 21 3 22 8 25 111 2 99 4 107
22 107 17 0 20 7 20 45 0 38 3 45 20 45 17 0 20 -7 20 -45 0 -38 3 -45 20 -45
18 0 20 -7 20 -85 0 -78 2 -85 20 -85 18 0 20 7 20 85 0 84 0 85 25 85 18 0
25 -5 25 -20 0 -13 7 -20 20 -20 13 0 20 7 20 20 0 13 -7 20 -20 20 -13 0 -20
7 -20 20 0 15 -7 20 -25 20 -20 0 -25 5 -25 25 0 23 -4 25 -40 25 l-40 0 0 40
c0 33 -3 40 -20 40 -17 0 -20 -7 -20 -39 0 -33 -4 -40 -22 -43 -19 -2 -24 -10
-26 -45 -3 -35 -7 -43 -23 -43 -17 0 -19 -7 -19 -65 0 -58 -2 -65 -20 -65 -13
0 -20 -7 -20 -20 0 -15 -7 -20 -25 -20 -22 0 -25 -4 -25 -40 0 -29 -4 -40 -15
-40 -11 0 -15 -12 -15 -45 0 -41 -2 -45 -25 -45 -18 0 -25 -5 -25 -20 0 -13
-7 -20 -20 -20 -15 0 -20 -7 -20 -25 0 -23 -4 -25 -45 -25 -38 0 -45 -3 -45
-20 0 -17 -7 -20 -40 -20 -33 0 -40 3 -40 20 0 13 7 20 20 20 18 0 20 7 20 65
0 58 2 65 20 65 15 0 20 7 20 25 0 20 5 25 25 25 16 0 25 6 25 15 0 8 9 15 20
15 15 0 20 7 20 25 0 18 5 25 20 25 17 0 20 -7 20 -40 0 -36 3 -40 25 -40 25
0 25 1 25 85 0 69 3 85 15 85 12 0 15 18 15 105 l0 105 25 0 c23 0 25 4 25 45
0 38 3 45 20 45 13 0 20 7 20 20 0 13 -7 20 -20 20 -13 0 -20 -7 -20 -19 0
-13 -8 -21 -22 -23 -19 -2 -24 -10 -26 -45 -2 -29 -8 -43 -17 -43 -9 0 -15
-14 -17 -42 -2 -36 -7 -44 -25 -46 -15 -2 -23 -10 -23 -23 0 -12 -7 -19 -20
-19 -13 0 -20 -7 -20 -20 0 -17 -7 -20 -45 -20 -38 0 -45 3 -45 20 0 13 -7 20
-20 20 -18 0 -20 7 -20 65 0 58 2 65 20 65 19 0 20 7 20 170 0 163 -1 170 -20
170 -18 0 -20 -7 -20 -85 0 -78 -2 -85 -20 -85 -17 0 -20 -7 -20 -40 0 -33 -3
-40 -20 -40 -17 0 -20 -7 -20 -45 0 -41 -2 -45 -25 -45 -18 0 -25 -5 -25 -20
0 -18 -7 -20 -65 -20 l-65 0 0 40 c0 33 -3 40 -20 40 -15 0 -20 7 -20 25 0 18
-5 25 -20 25 -18 0 -20 7 -20 80 0 73 2 80 20 80 18 0 20 7 20 66 0 57 3 67
20 71 11 3 20 12 20 19 0 8 -9 14 -20 14 -11 0 -20 -7 -20 -15z m-40 -430 c0
-58 2 -65 20 -65 18 0 20 -7 20 -60 0 -53 2 -60 20 -60 18 0 20 -7 20 -84 0
-80 1 -85 23 -88 18 -2 23 -10 25 -45 l3 -43 -40 0 c-33 0 -40 3 -43 23 -2 14
-11 23 -25 25 -15 2 -23 10 -23 23 0 16 -7 19 -44 19 -29 0 -44 4 -43 13 2 50
-4 67 -22 67 -13 0 -21 8 -23 23 -2 12 -10 22 -18 22 -10 0 -16 13 -18 43 -3
37 -1 42 17 42 14 0 21 6 21 20 0 17 7 20 45 20 l45 0 0 85 c0 78 2 85 20 85
18 0 20 -7 20 -65z m210 -85 c0 -18 7 -20 65 -20 58 0 65 -2 65 -20 0 -13 7
-20 20 -20 13 0 20 -7 20 -19 0 -13 8 -21 23 -23 14 -2 22 -9 21 -20 -1 -10
-2 -29 -3 -43 -1 -18 -7 -25 -21 -25 -13 0 -20 -7 -20 -20 0 -13 -7 -20 -20
-20 -17 0 -20 -7 -20 -41 0 -32 -4 -42 -20 -46 -11 -3 -20 -14 -20 -24 0 -16
-8 -19 -45 -19 l-45 0 0 45 c0 38 -3 45 -20 45 -19 0 -20 7 -20 105 0 98 1
105 20 105 13 0 20 7 20 19 0 16 -8 20 -42 23 -31 2 -44 8 -46 21 -3 14 4 17
42 17 39 0 46 -3 46 -20z m680 0 c0 -13 -7 -20 -20 -20 -13 0 -20 7 -20 20 0
13 7 20 20 20 13 0 20 -7 20 -20z m-1102 -125 c-3 -62 -2 -65 20 -65 21 0 22
-4 22 -85 l0 -85 -39 0 c-33 0 -40 4 -43 23 -2 18 -10 23 -45 25 -35 3 -43 7
-43 23 0 13 -7 19 -24 19 -21 0 -24 4 -22 37 1 27 -3 37 -16 41 -21 5 -24 42
-4 42 8 0 16 10 18 23 3 19 8 22 46 19 39 -2 42 -1 42 23 0 23 4 25 45 25 l45
0 -2 -65z m802 -320 c0 -33 -4 -45 -15 -45 -8 0 -15 -9 -15 -20 0 -15 -7 -20
-25 -20 -18 0 -25 -5 -25 -20 0 -15 7 -20 25 -20 20 0 25 -5 25 -25 0 -16 6
-25 15 -25 8 0 15 -9 15 -20 0 -15 7 -20 25 -20 18 0 25 -5 25 -20 0 -18 -7
-20 -65 -20 -58 0 -65 2 -65 20 0 13 -7 20 -20 20 -13 0 -20 7 -20 20 0 13 7
20 20 20 15 0 20 7 20 25 0 24 -2 25 -65 25 -63 0 -65 -1 -65 -25 0 -18 -5
-25 -20 -25 -15 0 -20 7 -20 25 0 18 5 25 20 25 13 0 20 7 20 20 0 15 7 20 25
20 18 0 25 5 25 20 0 13 7 20 20 20 13 0 20 7 20 20 0 17 7 20 45 20 41 0 45
2 45 25 0 16 6 25 15 25 11 0 15 -12 15 -45z m-470 -66 c0 -16 8 -19 45 -19
38 0 45 -3 45 -20 0 -13 -7 -20 -20 -20 -15 0 -20 -7 -20 -25 0 -20 -5 -25
-25 -25 -18 0 -25 -5 -25 -20 0 -18 -7 -20 -80 -20 -72 0 -80 2 -80 19 0 16
-9 21 -45 27 -35 5 -45 10 -45 25 0 12 -7 19 -18 19 -11 0 -18 8 -19 20 -1 14
4 20 18 20 12 0 19 7 19 20 0 20 5 21 125 19 115 -1 125 -3 125 -20z m180 1
c0 -13 -7 -20 -20 -20 -13 0 -20 7 -20 20 0 13 7 20 20 20 13 0 20 -7 20 -20z
m0 -190 c0 -33 -3 -40 -19 -40 -13 0 -21 -8 -23 -22 -2 -15 -10 -23 -23 -23
-13 0 -21 -8 -23 -22 -3 -20 -9 -23 -48 -23 l-44 0 0 45 c0 41 2 45 25 45 23
0 25 4 25 40 l0 40 65 0 65 0 0 -40z"/>
<path d="M3410 4336 c0 -21 5 -26 26 -26 21 0 25 4 22 23 -2 14 -11 23 -25 25
-19 3 -23 -1 -23 -22z"/>
<path d="M4010 4080 c0 -17 7 -20 40 -20 36 0 40 -2 40 -25 0 -20 5 -25 25
-25 18 0 25 -5 25 -20 0 -13 7 -20 20 -20 13 0 20 7 20 20 0 13 -7 20 -20 20
-15 0 -20 7 -20 25 0 20 -5 25 -25 25 -18 0 -25 5 -25 20 0 17 -7 20 -40 20
-33 0 -40 -3 -40 -20z"/>
<path d="M4440 3710 c0 -33 3 -40 20 -40 17 0 20 7 20 40 0 33 -3 40 -20 40
-17 0 -20 -7 -20 -40z"/>
<path d="M2860 3180 c0 -13 7 -20 20 -20 13 0 20 -7 20 -20 0 -13 7 -20 19
-20 13 0 21 -8 23 -22 2 -15 11 -24 26 -26 18 -3 22 1 22 22 0 21 -5 26 -25
26 -18 0 -25 5 -25 20 0 13 -7 20 -20 20 -13 0 -20 7 -20 20 0 13 -7 20 -20
20 -13 0 -20 -7 -20 -20z"/>
<path d="M3008 3072 c-25 -5 -23 -42 2 -42 13 0 20 -7 20 -20 0 -17 7 -20 40
-20 36 0 40 -2 40 -25 0 -20 5 -25 25 -25 20 0 25 5 25 25 0 20 -5 25 -25 25
-18 0 -25 5 -25 20 0 17 -7 20 -39 20 -34 0 -40 3 -43 23 -2 15 -9 21 -20 19z"/>
<path d="M2390 2971 c0 -13 -8 -21 -22 -23 -15 -2 -24 -11 -26 -25 -2 -15 -10
-23 -23 -23 -16 0 -19 -7 -19 -40 0 -36 3 -40 25 -40 23 0 25 4 25 40 0 33 3
40 20 40 13 0 20 7 20 20 0 13 7 20 20 20 15 0 20 7 20 25 0 18 -5 25 -20 25
-13 0 -20 -7 -20 -19z"/>
<path d="M4097 2971 c-3 -11 -3 -22 0 -24 11 -11 43 7 43 24 0 25 -36 25 -43
0z"/>
<path d="M4140 2920 c0 -13 7 -20 20 -20 13 0 20 -7 20 -20 0 -13 7 -20 20
-20 14 0 20 -7 20 -21 0 -15 5 -20 23 -17 14 2 22 10 22 23 0 13 -6 19 -17 17
-9 -1 -18 6 -21 18 -3 12 -13 20 -26 20 -14 0 -21 6 -21 20 0 13 -7 20 -20 20
-13 0 -20 -7 -20 -20z"/>
<path d="M3070 2880 c0 -16 5 -21 23 -18 12 2 22 10 22 18 0 8 -10 16 -22 18
-18 3 -23 -2 -23 -18z"/>
<path d="M2520 2540 c0 -13 7 -20 20 -20 13 0 20 7 20 20 0 13 -7 20 -20 20
-13 0 -20 -7 -20 -20z"/>
<path d="M3500 2370 c0 -18 7 -20 60 -20 53 0 60 -2 60 -20 0 -17 7 -20 45
-20 41 0 45 -2 45 -25 0 -20 5 -25 26 -25 21 0 25 4 22 23 -2 14 -11 23 -25
25 -15 2 -23 10 -23 23 0 15 -7 19 -39 19 -30 0 -40 4 -44 20 -4 17 -14 20
-66 20 -54 0 -61 -2 -61 -20z"/>
<path d="M4140 2330 c0 -13 7 -20 20 -20 13 0 20 7 20 20 0 13 -7 20 -20 20
-13 0 -20 -7 -20 -20z"/>
<path d="M2810 2285 c0 -20 5 -25 25 -25 20 0 25 5 25 25 0 20 -5 25 -25 25
-20 0 -25 -5 -25 -25z"/>
<path d="M3970 2285 c0 -18 5 -25 20 -25 15 0 20 7 20 25 0 18 -5 25 -20 25
-15 0 -20 -7 -20 -25z"/>
<path d="M4092 2198 c2 -15 10 -23 23 -23 13 0 21 8 23 23 3 18 -1 22 -23 22
-22 0 -26 -4 -23 -22z"/>
<path d="M4262 2198 c2 -15 10 -23 23 -23 13 0 21 8 23 23 3 18 -1 22 -23 22
-22 0 -26 -4 -23 -22z"/>
<path d="M3887 2174 c-15 -16 -6 -34 17 -34 17 0 24 5 22 18 -3 18 -27 28 -39
16z"/>
<path d="M4310 2115 c0 -18 5 -25 20 -25 15 0 20 7 20 25 0 18 -5 25 -20 25
-15 0 -20 -7 -20 -25z"/>
<path d="M4180 2070 c0 -13 7 -20 19 -20 10 0 21 9 24 20 4 16 0 20 -19 20
-17 0 -24 -6 -24 -20z"/>
<path d="M4582 4543 c48 -2 129 -2 180 0 51 1 12 3 -87 3 -99 0 -141 -2 -93
-3z"/>
<path d="M4933 4503 c31 -2 83 -2 115 0 31 2 5 3 -58 3 -63 0 -89 -1 -57 -3z"/>
<path d="M5373 4413 c15 -2 39 -2 55 0 15 2 2 4 -28 4 -30 0 -43 -2 -27 -4z"/>
<path d="M5503 4373 c15 -2 37 -2 50 0 12 2 0 4 -28 4 -27 0 -38 -2 -22 -4z"/>
<path d="M5613 4333 c9 -2 25 -2 35 0 9 3 1 5 -18 5 -19 0 -27 -2 -17 -5z"/>
<path d="M5645 4210 c-11 -4 -27 -5 -35 -2 -8 3 -12 1 -7 -3 7 -8 87 -8 95 -1
7 8 -35 12 -53 6z"/>
<path d="M5198 4203 c12 -2 30 -2 40 0 9 3 -1 5 -23 4 -22 0 -30 -2 -17 -4z"/>
<path d="M568 4193 c-3 -11 -2 -27 3 -34 7 -11 9 -11 9 -1 0 25 28 -13 33 -44
3 -22 4 -19 6 14 1 32 -3 42 -14 42 -9 0 -19 10 -24 22 -8 21 -8 21 -13 1z"/>
<path d="M4820 3350 c0 -13 7 -20 20 -20 13 0 20 7 20 20 0 13 -7 20 -20 20
-13 0 -20 -7 -20 -20z"/>
<path d="M4780 3160 c0 -33 3 -40 20 -40 13 0 20 7 20 20 0 13 7 20 20 20 13
0 20 7 20 20 0 17 -7 20 -40 20 l-40 0 0 -40z"/>
<path d="M4950 2370 c0 -13 7 -20 20 -20 13 0 20 7 20 20 0 13 -7 20 -20 20
-13 0 -20 -7 -20 -20z"/>
<path d="M5077 2383 c-4 -3 -7 -21 -7 -40 0 -26 -4 -33 -20 -33 -15 0 -20 -7
-20 -26 0 -21 4 -25 23 -22 14 2 23 11 25 26 2 14 10 22 23 22 16 0 19 7 19
40 0 32 -4 40 -18 40 -10 0 -22 -3 -25 -7z"/>
<path d="M4820 2240 c0 -13 7 -20 20 -20 13 0 20 7 20 20 0 13 -7 20 -20 20
-13 0 -20 -7 -20 -20z"/>
<path d="M4910 2240 c0 -13 7 -20 20 -20 13 0 20 7 20 20 0 13 -7 20 -20 20
-13 0 -20 -7 -20 -20z"/>
<path d="M4777 2133 c-9 -20 0 -38 21 -41 18 -3 22 1 22 22 0 19 -5 26 -19 26
-11 0 -22 -3 -24 -7z"/>
<path d="M4910 2115 c0 -18 5 -25 20 -25 15 0 20 7 20 25 0 18 -5 25 -20 25
-15 0 -20 -7 -20 -25z"/>
<path d="M3200 1390 c0 -143 1 -150 20 -150 19 0 20 7 20 150 0 143 -1 150
-20 150 -19 0 -20 -7 -20 -150z"/>
<path d="M4303 1390 c-3 -11 -14 -20 -24 -20 -17 0 -19 -8 -19 -65 l0 -65 90
0 c83 0 90 1 90 20 0 13 7 20 20 20 18 0 20 7 20 65 l0 65 -86 0 c-77 0 -86
-2 -91 -20z"/>
<path d="M4690 1371 c0 -34 -3 -41 -20 -41 -15 0 -20 -7 -20 -25 0 -18 5 -25
20 -25 13 0 20 -7 20 -20 0 -15 7 -20 25 -20 23 0 25 4 25 45 0 33 4 45 15 45
8 0 16 9 16 20 1 11 2 28 3 38 1 13 -8 18 -41 20 l-43 3 0 -40z"/>
<path d="M4140 1385 c0 -11 12 -15 45 -15 38 0 45 -3 45 -20 0 -11 5 -20 10
-20 6 0 10 6 10 13 0 6 3 22 6 35 6 21 4 22 -55 22 -48 0 -61 -3 -61 -15z"/>
<path d="M4520 1216 c0 -19 5 -26 20 -26 14 0 20 -7 20 -21 0 -15 5 -20 23
-17 19 3 22 9 22 43 0 40 0 40 -42 43 -40 3 -43 1 -43 -22z"/>
<path d="M3460 1175 c0 -9 -9 -15 -25 -15 l-25 0 0 -110 0 -110 25 0 c25 0 25
1 25 85 0 78 2 85 20 85 17 0 20 7 20 40 0 33 -3 40 -20 40 -11 0 -20 -7 -20
-15z"/>
<path d="M1008 1043 c7 -3 16 -2 19 1 4 3 -2 6 -13 5 -11 0 -14 -3 -6 -6z"/>
<path d="M1327 492 c6 -4 13 -30 16 -57 l3 -50 2 58 c2 48 -1 57 -15 57 -12 0
-14 -3 -6 -8z"/>
<path d="M1251 374 c0 -11 3 -14 6 -6 3 7 2 16 -1 19 -3 4 -6 -2 -5 -13z"/>
<path d="M1366 363 c5 -5 12 -12 16 -18 4 -6 8 -2 8 8 0 9 -7 17 -17 17 -9 0
-12 -3 -7 -7z"/>
<path d="M1338 233 c7 -3 16 -2 19 1 4 3 -2 6 -13 5 -11 0 -14 -3 -6 -6z"/>
<path d="M2460 6386 c0 -8 -8 -17 -17 -19 -14 -4 -12 -5 5 -6 16 -1 22 5 22
19 0 11 -2 20 -5 20 -3 0 -5 -6 -5 -14z"/>
<path d="M4613 6360 c0 -25 2 -35 4 -22 2 12 2 32 0 45 -2 12 -4 2 -4 -23z"/>
<path d="M4633 6360 c0 -25 2 -35 4 -22 2 12 2 32 0 45 -2 12 -4 2 -4 -23z"/>
<path d="M3670 6310 c0 -22 5 -30 18 -29 10 0 12 3 5 6 -7 2 -13 14 -12 26 0
21 1 21 9 2 8 -19 9 -19 9 3 1 13 -5 22 -14 22 -10 0 -15 -10 -15 -30z"/>
<path d="M2373 6280 c0 -25 2 -35 4 -22 2 12 2 32 0 45 -2 12 -4 2 -4 -23z"/>
<path d="M4662 6258 l1 -53 7 50 7 50 1 -52 c2 -41 -1 -52 -15 -56 -14 -4 -12
-5 5 -6 20 -1 22 3 22 59 0 47 -3 60 -15 60 -12 0 -15 -12 -13 -52z"/>
<path d="M3720 6225 c0 -19 4 -35 8 -35 4 0 9 16 10 35 2 19 -2 35 -8 35 -5 0
-10 -16 -10 -35z"/>
<path d="M2330 6196 c0 -24 -5 -36 -17 -39 -14 -4 -12 -5 5 -6 19 -1 22 4 22
39 0 22 -2 40 -5 40 -3 0 -5 -15 -5 -34z"/>
<path d="M4701 6138 l2 -43 7 40 6 40 6 -40 5 -40 1 43 c2 31 -2 42 -13 42
-11 0 -15 -11 -14 -42z"/>
<path d="M3800 6075 c0 -30 3 -55 8 -55 4 0 7 25 7 55 0 30 -3 55 -7 55 -5 0
-8 -25 -8 -55z"/>
<path d="M4758 6043 l-1 -58 -7 55 -7 55 -1 -57 c-2 -46 1 -58 13 -58 12 0 15
13 15 60 0 77 -9 79 -12 3z"/>
<path d="M2250 5941 c0 -67 -3 -80 -17 -84 -14 -4 -12 -5 5 -6 21 -1 22 2 22
84 0 47 -2 85 -5 85 -3 0 -5 -36 -5 -79z"/>
<path d="M3862 5980 c0 -14 2 -19 5 -12 2 6 2 18 0 25 -3 6 -5 1 -5 -13z"/>
<path d="M4782 5843 l2 -128 6 125 6 125 5 -125 5 -125 2 128 c2 107 0 127
-13 127 -13 0 -15 -20 -13 -127z"/>
<path d="M3890 5845 c0 -43 4 -75 10 -75 6 0 10 32 10 75 0 43 -4 75 -10 75
-6 0 -10 -32 -10 -75z"/>
<path d="M2204 5745 c0 -55 1 -76 3 -47 2 29 2 74 0 100 -2 26 -3 2 -3 -53z"/>
<path d="M1700 5791 c0 -14 -6 -21 -20 -21 -16 0 -20 -7 -20 -30 0 -23 4 -30
20 -30 14 0 20 -7 20 -21 0 -16 5 -20 28 -17 19 2 27 8 26 21 -1 12 5 17 22
17 20 0 24 5 24 30 0 25 -4 30 -24 30 -17 0 -23 5 -22 18 1 12 -7 18 -26 20
-23 3 -28 -1 -28 -17z"/>
<path d="M3930 5720 c0 -16 3 -30 8 -30 4 0 7 14 7 30 0 17 -3 30 -7 30 -5 0
-8 -13 -8 -30z"/>
<path d="M1627 5523 c18 -2 50 -2 70 0 21 2 7 4 -32 4 -38 0 -55 -2 -38 -4z"/>
</g>
</svg>
